ISO-10303-21;
HEADER;
/* Generated by software containing ST-Developer
 * from STEP Tools, Inc. (www.steptools.com) 
 */

FILE_DESCRIPTION(
/* description */ (''),
/* implementation_level */ '2;1');

FILE_NAME(
/* name */ 'Straightening_Section.step',
/* time_stamp */ '2026-09-19T12:04:03+08:00',
/* author */ (''),
/* organization */ (''),
/* preprocessor_version */ 'ST-DEVELOPER v20.1',
/* originating_system */ 'Autodesk Translation Framework v15.8.0.0',
/* authorisation */ '');

FILE_SCHEMA (('AUTOMOTIVE_DESIGN { 1 0 10303 214 3 1 1 }'));
ENDSEC;

DATA;
#10=MECHANICAL_DESIGN_GEOMETRIC_PRESENTATION_REPRESENTATION('',(#155,#156,
#157,#158),#1377);
#11=FACE_BOUND('',#200,.T.);
#12=FACE_BOUND('',#207,.T.);
#13=FACE_BOUND('',#212,.T.);
#14=FACE_BOUND('',#219,.T.);
#15=SHAPE_REPRESENTATION_RELATIONSHIP('SRR','None',#1449,#18);
#16=SHAPE_REPRESENTATION_RELATIONSHIP('SRR','None',#1459,#19);
#17=SHAPE_REPRESENTATION_RELATIONSHIP('SRR','None',#1461,#20);
#18=ADVANCED_BREP_SHAPE_REPRESENTATION('',(#21),#1364);
#19=ADVANCED_BREP_SHAPE_REPRESENTATION('',(#22),#1374);
#20=ADVANCED_BREP_SHAPE_REPRESENTATION('',(#23),#1376);
#21=MANIFOLD_SOLID_BREP('\X2\7F51683C5B9E4F53\X0\1',#24);
#22=MANIFOLD_SOLID_BREP('\X2\7F51683C5B9E4F53\X0\1',#25);
#23=MANIFOLD_SOLID_BREP('\X2\7F51683C5B9E4F53\X0\1',#26);
#24=CLOSED_SHELL('',(#657,#658,#659,#660,#661,#662));
#25=CLOSED_SHELL('',(#663,#664,#665,#666,#667,#668,#669,#670,#671,#672));
#26=CLOSED_SHELL('',(#673,#674,#675,#676,#677,#678,#679,#680,#681,#682));
#27=ITEM_DEFINED_TRANSFORMATION($,$,#842,#847);
#28=ITEM_DEFINED_TRANSFORMATION($,$,#842,#848);
#29=ITEM_DEFINED_TRANSFORMATION($,$,#842,#849);
#30=ITEM_DEFINED_TRANSFORMATION($,$,#842,#850);
#31=ITEM_DEFINED_TRANSFORMATION($,$,#851,#890);
#32=ITEM_DEFINED_TRANSFORMATION($,$,#851,#891);
#33=ITEM_DEFINED_TRANSFORMATION($,$,#851,#892);
#34=ITEM_DEFINED_TRANSFORMATION($,$,#841,#893);
#35=ITEM_DEFINED_TRANSFORMATION($,$,#851,#894);
#36=ITEM_DEFINED_TRANSFORMATION($,$,#879,#895);
#37=ITEM_DEFINED_TRANSFORMATION($,$,#851,#896);
#38=ITEM_DEFINED_TRANSFORMATION($,$,#851,#897);
#39=ITEM_DEFINED_TRANSFORMATION($,$,#851,#898);
#40=ITEM_DEFINED_TRANSFORMATION($,$,#851,#899);
#41=ITEM_DEFINED_TRANSFORMATION($,$,#851,#900);
#42=ITEM_DEFINED_TRANSFORMATION($,$,#851,#901);
#43=ITEM_DEFINED_TRANSFORMATION($,$,#851,#902);
#44=ITEM_DEFINED_TRANSFORMATION($,$,#851,#903);
#45=ITEM_DEFINED_TRANSFORMATION($,$,#867,#904);
#46=ITEM_DEFINED_TRANSFORMATION($,$,#858,#905);
#47=ITEM_DEFINED_TRANSFORMATION($,$,#879,#906);
#48=ITEM_DEFINED_TRANSFORMATION($,$,#859,#907);
#49=ITEM_DEFINED_TRANSFORMATION($,$,#860,#908);
#50=ITEM_DEFINED_TRANSFORMATION($,$,#861,#909);
#51=ITEM_DEFINED_TRANSFORMATION($,$,#862,#910);
#52=ITEM_DEFINED_TRANSFORMATION($,$,#863,#911);
#53=ITEM_DEFINED_TRANSFORMATION($,$,#864,#912);
#54=ITEM_DEFINED_TRANSFORMATION($,$,#865,#913);
#55=ITEM_DEFINED_TRANSFORMATION($,$,#866,#914);
#56=ITEM_DEFINED_TRANSFORMATION($,$,#867,#915);
#57=ITEM_DEFINED_TRANSFORMATION($,$,#878,#916);
#58=ITEM_DEFINED_TRANSFORMATION($,$,#879,#917);
#59=(
REPRESENTATION_RELATIONSHIP($,$,#1448,#1447)
REPRESENTATION_RELATIONSHIP_WITH_TRANSFORMATION(#27)
SHAPE_REPRESENTATION_RELATIONSHIP()
);
#60=(
REPRESENTATION_RELATIONSHIP($,$,#1448,#1447)
REPRESENTATION_RELATIONSHIP_WITH_TRANSFORMATION(#28)
SHAPE_REPRESENTATION_RELATIONSHIP()
);
#61=(
REPRESENTATION_RELATIONSHIP($,$,#1448,#1447)
REPRESENTATION_RELATIONSHIP_WITH_TRANSFORMATION(#29)
SHAPE_REPRESENTATION_RELATIONSHIP()
);
#62=(
REPRESENTATION_RELATIONSHIP($,$,#1448,#1447)
REPRESENTATION_RELATIONSHIP_WITH_TRANSFORMATION(#30)
SHAPE_REPRESENTATION_RELATIONSHIP()
);
#63=(
REPRESENTATION_RELATIONSHIP($,$,#1449,#1446)
REPRESENTATION_RELATIONSHIP_WITH_TRANSFORMATION(#31)
SHAPE_REPRESENTATION_RELATIONSHIP()
);
#64=(
REPRESENTATION_RELATIONSHIP($,$,#1449,#1446)
REPRESENTATION_RELATIONSHIP_WITH_TRANSFORMATION(#32)
SHAPE_REPRESENTATION_RELATIONSHIP()
);
#65=(
REPRESENTATION_RELATIONSHIP($,$,#1449,#1446)
REPRESENTATION_RELATIONSHIP_WITH_TRANSFORMATION(#33)
SHAPE_REPRESENTATION_RELATIONSHIP()
);
#66=(
REPRESENTATION_RELATIONSHIP($,$,#1447,#1446)
REPRESENTATION_RELATIONSHIP_WITH_TRANSFORMATION(#34)
SHAPE_REPRESENTATION_RELATIONSHIP()
);
#67=(
REPRESENTATION_RELATIONSHIP($,$,#1449,#1446)
REPRESENTATION_RELATIONSHIP_WITH_TRANSFORMATION(#35)
SHAPE_REPRESENTATION_RELATIONSHIP()
);
#68=(
REPRESENTATION_RELATIONSHIP($,$,#1461,#1446)
REPRESENTATION_RELATIONSHIP_WITH_TRANSFORMATION(#36)
SHAPE_REPRESENTATION_RELATIONSHIP()
);
#69=(
REPRESENTATION_RELATIONSHIP($,$,#1449,#1446)
REPRESENTATION_RELATIONSHIP_WITH_TRANSFORMATION(#37)
SHAPE_REPRESENTATION_RELATIONSHIP()
);
#70=(
REPRESENTATION_RELATIONSHIP($,$,#1449,#1446)
REPRESENTATION_RELATIONSHIP_WITH_TRANSFORMATION(#38)
SHAPE_REPRESENTATION_RELATIONSHIP()
);
#71=(
REPRESENTATION_RELATIONSHIP($,$,#1449,#1446)
REPRESENTATION_RELATIONSHIP_WITH_TRANSFORMATION(#39)
SHAPE_REPRESENTATION_RELATIONSHIP()
);
#72=(
REPRESENTATION_RELATIONSHIP($,$,#1449,#1446)
REPRESENTATION_RELATIONSHIP_WITH_TRANSFORMATION(#40)
SHAPE_REPRESENTATION_RELATIONSHIP()
);
#73=(
REPRESENTATION_RELATIONSHIP($,$,#1449,#1446)
REPRESENTATION_RELATIONSHIP_WITH_TRANSFORMATION(#41)
SHAPE_REPRESENTATION_RELATIONSHIP()
);
#74=(
REPRESENTATION_RELATIONSHIP($,$,#1449,#1446)
REPRESENTATION_RELATIONSHIP_WITH_TRANSFORMATION(#42)
SHAPE_REPRESENTATION_RELATIONSHIP()
);
#75=(
REPRESENTATION_RELATIONSHIP($,$,#1449,#1446)
REPRESENTATION_RELATIONSHIP_WITH_TRANSFORMATION(#43)
SHAPE_REPRESENTATION_RELATIONSHIP()
);
#76=(
REPRESENTATION_RELATIONSHIP($,$,#1449,#1446)
REPRESENTATION_RELATIONSHIP_WITH_TRANSFORMATION(#44)
SHAPE_REPRESENTATION_RELATIONSHIP()
);
#77=(
REPRESENTATION_RELATIONSHIP($,$,#1459,#1446)
REPRESENTATION_RELATIONSHIP_WITH_TRANSFORMATION(#45)
SHAPE_REPRESENTATION_RELATIONSHIP()
);
#78=(
REPRESENTATION_RELATIONSHIP($,$,#1450,#1446)
REPRESENTATION_RELATIONSHIP_WITH_TRANSFORMATION(#46)
SHAPE_REPRESENTATION_RELATIONSHIP()
);
#79=(
REPRESENTATION_RELATIONSHIP($,$,#1461,#1446)
REPRESENTATION_RELATIONSHIP_WITH_TRANSFORMATION(#47)
SHAPE_REPRESENTATION_RELATIONSHIP()
);
#80=(
REPRESENTATION_RELATIONSHIP($,$,#1451,#1446)
REPRESENTATION_RELATIONSHIP_WITH_TRANSFORMATION(#48)
SHAPE_REPRESENTATION_RELATIONSHIP()
);
#81=(
REPRESENTATION_RELATIONSHIP($,$,#1452,#1446)
REPRESENTATION_RELATIONSHIP_WITH_TRANSFORMATION(#49)
SHAPE_REPRESENTATION_RELATIONSHIP()
);
#82=(
REPRESENTATION_RELATIONSHIP($,$,#1453,#1446)
REPRESENTATION_RELATIONSHIP_WITH_TRANSFORMATION(#50)
SHAPE_REPRESENTATION_RELATIONSHIP()
);
#83=(
REPRESENTATION_RELATIONSHIP($,$,#1454,#1446)
REPRESENTATION_RELATIONSHIP_WITH_TRANSFORMATION(#51)
SHAPE_REPRESENTATION_RELATIONSHIP()
);
#84=(
REPRESENTATION_RELATIONSHIP($,$,#1455,#1446)
REPRESENTATION_RELATIONSHIP_WITH_TRANSFORMATION(#52)
SHAPE_REPRESENTATION_RELATIONSHIP()
);
#85=(
REPRESENTATION_RELATIONSHIP($,$,#1456,#1446)
REPRESENTATION_RELATIONSHIP_WITH_TRANSFORMATION(#53)
SHAPE_REPRESENTATION_RELATIONSHIP()
);
#86=(
REPRESENTATION_RELATIONSHIP($,$,#1457,#1446)
REPRESENTATION_RELATIONSHIP_WITH_TRANSFORMATION(#54)
SHAPE_REPRESENTATION_RELATIONSHIP()
);
#87=(
REPRESENTATION_RELATIONSHIP($,$,#1458,#1446)
REPRESENTATION_RELATIONSHIP_WITH_TRANSFORMATION(#55)
SHAPE_REPRESENTATION_RELATIONSHIP()
);
#88=(
REPRESENTATION_RELATIONSHIP($,$,#1459,#1446)
REPRESENTATION_RELATIONSHIP_WITH_TRANSFORMATION(#56)
SHAPE_REPRESENTATION_RELATIONSHIP()
);
#89=(
REPRESENTATION_RELATIONSHIP($,$,#1460,#1446)
REPRESENTATION_RELATIONSHIP_WITH_TRANSFORMATION(#57)
SHAPE_REPRESENTATION_RELATIONSHIP()
);
#90=(
REPRESENTATION_RELATIONSHIP($,$,#1461,#1446)
REPRESENTATION_RELATIONSHIP_WITH_TRANSFORMATION(#58)
SHAPE_REPRESENTATION_RELATIONSHIP()
);
#91=CONTEXT_DEPENDENT_SHAPE_REPRESENTATION(#59,#1401);
#92=CONTEXT_DEPENDENT_SHAPE_REPRESENTATION(#60,#1402);
#93=CONTEXT_DEPENDENT_SHAPE_REPRESENTATION(#61,#1403);
#94=CONTEXT_DEPENDENT_SHAPE_REPRESENTATION(#62,#1404);
#95=CONTEXT_DEPENDENT_SHAPE_REPRESENTATION(#63,#1418);
#96=CONTEXT_DEPENDENT_SHAPE_REPRESENTATION(#64,#1419);
#97=CONTEXT_DEPENDENT_SHAPE_REPRESENTATION(#65,#1420);
#98=CONTEXT_DEPENDENT_SHAPE_REPRESENTATION(#66,#1421);
#99=CONTEXT_DEPENDENT_SHAPE_REPRESENTATION(#67,#1422);
#100=CONTEXT_DEPENDENT_SHAPE_REPRESENTATION(#68,#1423);
#101=CONTEXT_DEPENDENT_SHAPE_REPRESENTATION(#69,#1424);
#102=CONTEXT_DEPENDENT_SHAPE_REPRESENTATION(#70,#1425);
#103=CONTEXT_DEPENDENT_SHAPE_REPRESENTATION(#71,#1426);
#104=CONTEXT_DEPENDENT_SHAPE_REPRESENTATION(#72,#1427);
#105=CONTEXT_DEPENDENT_SHAPE_REPRESENTATION(#73,#1428);
#106=CONTEXT_DEPENDENT_SHAPE_REPRESENTATION(#74,#1429);
#107=CONTEXT_DEPENDENT_SHAPE_REPRESENTATION(#75,#1430);
#108=CONTEXT_DEPENDENT_SHAPE_REPRESENTATION(#76,#1431);
#109=CONTEXT_DEPENDENT_SHAPE_REPRESENTATION(#77,#1432);
#110=CONTEXT_DEPENDENT_SHAPE_REPRESENTATION(#78,#1433);
#111=CONTEXT_DEPENDENT_SHAPE_REPRESENTATION(#79,#1434);
#112=CONTEXT_DEPENDENT_SHAPE_REPRESENTATION(#80,#1435);
#113=CONTEXT_DEPENDENT_SHAPE_REPRESENTATION(#81,#1436);
#114=CONTEXT_DEPENDENT_SHAPE_REPRESENTATION(#82,#1437);
#115=CONTEXT_DEPENDENT_SHAPE_REPRESENTATION(#83,#1438);
#116=CONTEXT_DEPENDENT_SHAPE_REPRESENTATION(#84,#1439);
#117=CONTEXT_DEPENDENT_SHAPE_REPRESENTATION(#85,#1440);
#118=CONTEXT_DEPENDENT_SHAPE_REPRESENTATION(#86,#1441);
#119=CONTEXT_DEPENDENT_SHAPE_REPRESENTATION(#87,#1442);
#120=CONTEXT_DEPENDENT_SHAPE_REPRESENTATION(#88,#1443);
#121=CONTEXT_DEPENDENT_SHAPE_REPRESENTATION(#89,#1444);
#122=CONTEXT_DEPENDENT_SHAPE_REPRESENTATION(#90,#1445);
#123=NEXT_ASSEMBLY_USAGE_OCCURRENCE('\X2\5EFA7ACB7FA47D44\X0\#12:1',
'\X2\5EFA7ACB7FA47D44\X0\#12:1','\X2\5EFA7ACB7FA47D44\X0\#12:1',#1464,#1465,
'\X2\5EFA7ACB7FA47D44\X0\#12:1');
#124=NEXT_ASSEMBLY_USAGE_OCCURRENCE('\X2\5EFA7ACB7FA47D44\X0\#12:2',
'\X2\5EFA7ACB7FA47D44\X0\#12:2','\X2\5EFA7ACB7FA47D44\X0\#12:2',#1464,#1465,
'\X2\5EFA7ACB7FA47D44\X0\#12:2');
#125=NEXT_ASSEMBLY_USAGE_OCCURRENCE('\X2\5EFA7ACB7FA47D44\X0\#12:3',
'\X2\5EFA7ACB7FA47D44\X0\#12:3','\X2\5EFA7ACB7FA47D44\X0\#12:3',#1464,#1465,
'\X2\5EFA7ACB7FA47D44\X0\#12:3');
#126=NEXT_ASSEMBLY_USAGE_OCCURRENCE('\X2\5EFA7ACB7FA47D44\X0\#12:4',
'\X2\5EFA7ACB7FA47D44\X0\#12:4','\X2\5EFA7ACB7FA47D44\X0\#12:4',#1464,#1465,
'\X2\5EFA7ACB7FA47D44\X0\#12:4');
#127=NEXT_ASSEMBLY_USAGE_OCCURRENCE('\X2\5EFA7ACB7FA47D44\X0\#24:1',
'\X2\5EFA7ACB7FA47D44\X0\#24:1','\X2\5EFA7ACB7FA47D44\X0\#24:1',#1463,#1466,
'\X2\5EFA7ACB7FA47D44\X0\#24:1');
#128=NEXT_ASSEMBLY_USAGE_OCCURRENCE('\X2\5EFA7ACB7FA47D44\X0\#24:2',
'\X2\5EFA7ACB7FA47D44\X0\#24:2','\X2\5EFA7ACB7FA47D44\X0\#24:2',#1463,#1466,
'\X2\5EFA7ACB7FA47D44\X0\#24:2');
#129=NEXT_ASSEMBLY_USAGE_OCCURRENCE('\X2\5EFA7ACB7FA47D44\X0\#24:3',
'\X2\5EFA7ACB7FA47D44\X0\#24:3','\X2\5EFA7ACB7FA47D44\X0\#24:3',#1463,#1466,
'\X2\5EFA7ACB7FA47D44\X0\#24:3');
#130=NEXT_ASSEMBLY_USAGE_OCCURRENCE('\X2\5EFA7ACB7FA47D44\X0\#7:1',
'\X2\5EFA7ACB7FA47D44\X0\#7:1','\X2\5EFA7ACB7FA47D44\X0\#7:1',#1463,#1464,
'\X2\5EFA7ACB7FA47D44\X0\#7:1');
#131=NEXT_ASSEMBLY_USAGE_OCCURRENCE('\X2\5EFA7ACB7FA47D44\X0\#24:4',
'\X2\5EFA7ACB7FA47D44\X0\#24:4','\X2\5EFA7ACB7FA47D44\X0\#24:4',#1463,#1466,
'\X2\5EFA7ACB7FA47D44\X0\#24:4');
#132=NEXT_ASSEMBLY_USAGE_OCCURRENCE('\X2\5EFA7ACB7FA47D44\X0\#5:1',
'\X2\5EFA7ACB7FA47D44\X0\#5:1','\X2\5EFA7ACB7FA47D44\X0\#5:1',#1463,#1478,
'\X2\5EFA7ACB7FA47D44\X0\#5:1');
#133=NEXT_ASSEMBLY_USAGE_OCCURRENCE('\X2\5EFA7ACB7FA47D44\X0\#24:5',
'\X2\5EFA7ACB7FA47D44\X0\#24:5','\X2\5EFA7ACB7FA47D44\X0\#24:5',#1463,#1466,
'\X2\5EFA7ACB7FA47D44\X0\#24:5');
#134=NEXT_ASSEMBLY_USAGE_OCCURRENCE('\X2\5EFA7ACB7FA47D44\X0\#24:6',
'\X2\5EFA7ACB7FA47D44\X0\#24:6','\X2\5EFA7ACB7FA47D44\X0\#24:6',#1463,#1466,
'\X2\5EFA7ACB7FA47D44\X0\#24:6');
#135=NEXT_ASSEMBLY_USAGE_OCCURRENCE('\X2\5EFA7ACB7FA47D44\X0\#24:7',
'\X2\5EFA7ACB7FA47D44\X0\#24:7','\X2\5EFA7ACB7FA47D44\X0\#24:7',#1463,#1466,
'\X2\5EFA7ACB7FA47D44\X0\#24:7');
#136=NEXT_ASSEMBLY_USAGE_OCCURRENCE('\X2\5EFA7ACB7FA47D44\X0\#24:8',
'\X2\5EFA7ACB7FA47D44\X0\#24:8','\X2\5EFA7ACB7FA47D44\X0\#24:8',#1463,#1466,
'\X2\5EFA7ACB7FA47D44\X0\#24:8');
#137=NEXT_ASSEMBLY_USAGE_OCCURRENCE('\X2\5EFA7ACB7FA47D44\X0\#24:9',
'\X2\5EFA7ACB7FA47D44\X0\#24:9','\X2\5EFA7ACB7FA47D44\X0\#24:9',#1463,#1466,
'\X2\5EFA7ACB7FA47D44\X0\#24:9');
#138=NEXT_ASSEMBLY_USAGE_OCCURRENCE('\X2\5EFA7ACB7FA47D44\X0\#24:10',
'\X2\5EFA7ACB7FA47D44\X0\#24:10','\X2\5EFA7ACB7FA47D44\X0\#24:10',#1463,
#1466,'\X2\5EFA7ACB7FA47D44\X0\#24:10');
#139=NEXT_ASSEMBLY_USAGE_OCCURRENCE('\X2\5EFA7ACB7FA47D44\X0\#24:11',
'\X2\5EFA7ACB7FA47D44\X0\#24:11','\X2\5EFA7ACB7FA47D44\X0\#24:11',#1463,
#1466,'\X2\5EFA7ACB7FA47D44\X0\#24:11');
#140=NEXT_ASSEMBLY_USAGE_OCCURRENCE('\X2\5EFA7ACB7FA47D44\X0\#24:12',
'\X2\5EFA7ACB7FA47D44\X0\#24:12','\X2\5EFA7ACB7FA47D44\X0\#24:12',#1463,
#1466,'\X2\5EFA7ACB7FA47D44\X0\#24:12');
#141=NEXT_ASSEMBLY_USAGE_OCCURRENCE('\X2\5EFA7ACB7FA47D44\X0\#3:1',
'\X2\5EFA7ACB7FA47D44\X0\#3:1','\X2\5EFA7ACB7FA47D44\X0\#3:1',#1463,#1476,
'\X2\5EFA7ACB7FA47D44\X0\#3:1');
#142=NEXT_ASSEMBLY_USAGE_OCCURRENCE('\X2\5EFA7ACB7FA47D44\X0\#22:1',
'\X2\5EFA7ACB7FA47D44\X0\#22:1','\X2\5EFA7ACB7FA47D44\X0\#22:1',#1463,#1467,
'\X2\5EFA7ACB7FA47D44\X0\#22:1');
#143=NEXT_ASSEMBLY_USAGE_OCCURRENCE('\X2\5EFA7ACB7FA47D44\X0\#5:2',
'\X2\5EFA7ACB7FA47D44\X0\#5:2','\X2\5EFA7ACB7FA47D44\X0\#5:2',#1463,#1478,
'\X2\5EFA7ACB7FA47D44\X0\#5:2');
#144=NEXT_ASSEMBLY_USAGE_OCCURRENCE('\X2\5EFA7ACB7FA47D44\X0\#20:1',
'\X2\5EFA7ACB7FA47D44\X0\#20:1','\X2\5EFA7ACB7FA47D44\X0\#20:1',#1463,#1468,
'\X2\5EFA7ACB7FA47D44\X0\#20:1');
#145=NEXT_ASSEMBLY_USAGE_OCCURRENCE('\X2\5EFA7ACB7FA47D44\X0\#16:1',
'\X2\5EFA7ACB7FA47D44\X0\#16:1','\X2\5EFA7ACB7FA47D44\X0\#16:1',#1463,#1469,
'\X2\5EFA7ACB7FA47D44\X0\#16:1');
#146=NEXT_ASSEMBLY_USAGE_OCCURRENCE('\X2\5EFA7ACB7FA47D44\X0\#13:1',
'\X2\5EFA7ACB7FA47D44\X0\#13:1','\X2\5EFA7ACB7FA47D44\X0\#13:1',#1463,#1470,
'\X2\5EFA7ACB7FA47D44\X0\#13:1');
#147=NEXT_ASSEMBLY_USAGE_OCCURRENCE('\X2\5EFA7ACB7FA47D44\X0\#14:1',
'\X2\5EFA7ACB7FA47D44\X0\#14:1','\X2\5EFA7ACB7FA47D44\X0\#14:1',#1463,#1471,
'\X2\5EFA7ACB7FA47D44\X0\#14:1');
#148=NEXT_ASSEMBLY_USAGE_OCCURRENCE('\X2\5EFA7ACB7FA47D44\X0\#19:1',
'\X2\5EFA7ACB7FA47D44\X0\#19:1','\X2\5EFA7ACB7FA47D44\X0\#19:1',#1463,#1472,
'\X2\5EFA7ACB7FA47D44\X0\#19:1');
#149=NEXT_ASSEMBLY_USAGE_OCCURRENCE('\X2\5EFA7ACB7FA47D44\X0\#6:1',
'\X2\5EFA7ACB7FA47D44\X0\#6:1','\X2\5EFA7ACB7FA47D44\X0\#6:1',#1463,#1473,
'\X2\5EFA7ACB7FA47D44\X0\#6:1');
#150=NEXT_ASSEMBLY_USAGE_OCCURRENCE('\X2\5EFA7ACB7FA47D44\X0\#18:1',
'\X2\5EFA7ACB7FA47D44\X0\#18:1','\X2\5EFA7ACB7FA47D44\X0\#18:1',#1463,#1474,
'\X2\5EFA7ACB7FA47D44\X0\#18:1');
#151=NEXT_ASSEMBLY_USAGE_OCCURRENCE('\X2\5EFA7ACB7FA47D44\X0\#15:1',
'\X2\5EFA7ACB7FA47D44\X0\#15:1','\X2\5EFA7ACB7FA47D44\X0\#15:1',#1463,#1475,
'\X2\5EFA7ACB7FA47D44\X0\#15:1');
#152=NEXT_ASSEMBLY_USAGE_OCCURRENCE('\X2\5EFA7ACB7FA47D44\X0\#3:2',
'\X2\5EFA7ACB7FA47D44\X0\#3:2','\X2\5EFA7ACB7FA47D44\X0\#3:2',#1463,#1476,
'\X2\5EFA7ACB7FA47D44\X0\#3:2');
#153=NEXT_ASSEMBLY_USAGE_OCCURRENCE('\X2\5DEE7570\X0\#1:1','\X2\5DEE7570\X0\#
1:1','\X2\5DEE7570\X0\#1:1',#1463,#1477,'\X2\5DEE7570\X0\#1:1');
#154=NEXT_ASSEMBLY_USAGE_OCCURRENCE('\X2\5EFA7ACB7FA47D44\X0\#5:3',
'\X2\5EFA7ACB7FA47D44\X0\#5:3','\X2\5EFA7ACB7FA47D44\X0\#5:3',#1463,#1478,
'\X2\5EFA7ACB7FA47D44\X0\#5:3');
#155=STYLED_ITEM('',(#1531),#684);
#156=STYLED_ITEM('',(#1531),#21);
#157=STYLED_ITEM('',(#1531),#22);
#158=STYLED_ITEM('',(#1531),#23);
#159=FACE_OUTER_BOUND('',#189,.T.);
#160=FACE_OUTER_BOUND('',#190,.T.);
#161=FACE_OUTER_BOUND('',#191,.T.);
#162=FACE_OUTER_BOUND('',#192,.T.);
#163=FACE_OUTER_BOUND('',#193,.T.);
#164=FACE_OUTER_BOUND('',#194,.T.);
#165=FACE_OUTER_BOUND('',#195,.T.);
#166=FACE_OUTER_BOUND('',#196,.T.);
#167=FACE_OUTER_BOUND('',#197,.T.);
#168=FACE_OUTER_BOUND('',#198,.T.);
#169=FACE_OUTER_BOUND('',#199,.T.);
#170=FACE_OUTER_BOUND('',#201,.T.);
#171=FACE_OUTER_BOUND('',#202,.T.);
#172=FACE_OUTER_BOUND('',#203,.T.);
#173=FACE_OUTER_BOUND('',#204,.T.);
#174=FACE_OUTER_BOUND('',#205,.T.);
#175=FACE_OUTER_BOUND('',#206,.T.);
#176=FACE_OUTER_BOUND('',#208,.T.);
#177=FACE_OUTER_BOUND('',#209,.T.);
#178=FACE_OUTER_BOUND('',#210,.T.);
#179=FACE_OUTER_BOUND('',#211,.T.);
#180=FACE_OUTER_BOUND('',#213,.T.);
#181=FACE_OUTER_BOUND('',#214,.T.);
#182=FACE_OUTER_BOUND('',#215,.T.);
#183=FACE_OUTER_BOUND('',#216,.T.);
#184=FACE_OUTER_BOUND('',#217,.T.);
#185=FACE_OUTER_BOUND('',#218,.T.);
#186=FACE_OUTER_BOUND('',#220,.T.);
#187=FACE_OUTER_BOUND('',#221,.T.);
#188=FACE_OUTER_BOUND('',#222,.T.);
#189=EDGE_LOOP('',(#487,#488,#489,#490));
#190=EDGE_LOOP('',(#491,#492,#493,#494));
#191=EDGE_LOOP('',(#495,#496,#497,#498));
#192=EDGE_LOOP('',(#499,#500,#501,#502));
#193=EDGE_LOOP('',(#503,#504,#505,#506));
#194=EDGE_LOOP('',(#507,#508,#509,#510));
#195=EDGE_LOOP('',(#511,#512,#513,#514));
#196=EDGE_LOOP('',(#515,#516,#517,#518));
#197=EDGE_LOOP('',(#519,#520,#521,#522));
#198=EDGE_LOOP('',(#523,#524,#525,#526));
#199=EDGE_LOOP('',(#527,#528,#529,#530));
#200=EDGE_LOOP('',(#531,#532,#533,#534));
#201=EDGE_LOOP('',(#535,#536,#537,#538));
#202=EDGE_LOOP('',(#539,#540,#541,#542));
#203=EDGE_LOOP('',(#543,#544,#545,#546));
#204=EDGE_LOOP('',(#547,#548,#549,#550));
#205=EDGE_LOOP('',(#551,#552,#553,#554));
#206=EDGE_LOOP('',(#555,#556,#557,#558));
#207=EDGE_LOOP('',(#559,#560,#561,#562));
#208=EDGE_LOOP('',(#563,#564,#565,#566));
#209=EDGE_LOOP('',(#567,#568,#569,#570));
#210=EDGE_LOOP('',(#571,#572,#573,#574));
#211=EDGE_LOOP('',(#575,#576,#577,#578));
#212=EDGE_LOOP('',(#579,#580,#581,#582));
#213=EDGE_LOOP('',(#583,#584,#585,#586));
#214=EDGE_LOOP('',(#587,#588,#589,#590));
#215=EDGE_LOOP('',(#591,#592,#593,#594));
#216=EDGE_LOOP('',(#595,#596,#597,#598));
#217=EDGE_LOOP('',(#599,#600,#601,#602));
#218=EDGE_LOOP('',(#603,#604,#605,#606));
#219=EDGE_LOOP('',(#607,#608,#609,#610));
#220=EDGE_LOOP('',(#611,#612,#613,#614));
#221=EDGE_LOOP('',(#615,#616,#617,#618));
#222=EDGE_LOOP('',(#619,#620,#621,#622));
#223=LINE('',#1152,#295);
#224=LINE('',#1154,#296);
#225=LINE('',#1156,#297);
#226=LINE('',#1157,#298);
#227=LINE('',#1160,#299);
#228=LINE('',#1162,#300);
#229=LINE('',#1163,#301);
#230=LINE('',#1166,#302);
#231=LINE('',#1168,#303);
#232=LINE('',#1169,#304);
#233=LINE('',#1171,#305);
#234=LINE('',#1172,#306);
#235=LINE('',#1181,#307);
#236=LINE('',#1183,#308);
#237=LINE('',#1185,#309);
#238=LINE('',#1186,#310);
#239=LINE('',#1189,#311);
#240=LINE('',#1191,#312);
#241=LINE('',#1192,#313);
#242=LINE('',#1196,#314);
#243=LINE('',#1197,#315);
#244=LINE('',#1198,#316);
#245=LINE('',#1200,#317);
#246=LINE('',#1202,#318);
#247=LINE('',#1217,#319);
#248=LINE('',#1219,#320);
#249=LINE('',#1221,#321);
#250=LINE('',#1222,#322);
#251=LINE('',#1225,#323);
#252=LINE('',#1227,#324);
#253=LINE('',#1229,#325);
#254=LINE('',#1230,#326);
#255=LINE('',#1233,#327);
#256=LINE('',#1235,#328);
#257=LINE('',#1236,#329);
#258=LINE('',#1239,#330);
#259=LINE('',#1241,#331);
#260=LINE('',#1242,#332);
#261=LINE('',#1245,#333);
#262=LINE('',#1246,#334);
#263=LINE('',#1249,#335);
#264=LINE('',#1250,#336);
#265=LINE('',#1252,#337);
#266=LINE('',#1255,#338);
#267=LINE('',#1257,#339);
#268=LINE('',#1258,#340);
#269=LINE('',#1260,#341);
#270=LINE('',#1262,#342);
#271=LINE('',#1269,#343);
#272=LINE('',#1271,#344);
#273=LINE('',#1273,#345);
#274=LINE('',#1274,#346);
#275=LINE('',#1277,#347);
#276=LINE('',#1279,#348);
#277=LINE('',#1281,#349);
#278=LINE('',#1282,#350);
#279=LINE('',#1285,#351);
#280=LINE('',#1287,#352);
#281=LINE('',#1288,#353);
#282=LINE('',#1291,#354);
#283=LINE('',#1293,#355);
#284=LINE('',#1294,#356);
#285=LINE('',#1297,#357);
#286=LINE('',#1298,#358);
#287=LINE('',#1301,#359);
#288=LINE('',#1302,#360);
#289=LINE('',#1304,#361);
#290=LINE('',#1307,#362);
#291=LINE('',#1309,#363);
#292=LINE('',#1310,#364);
#293=LINE('',#1312,#365);
#294=LINE('',#1314,#366);
#295=VECTOR('',#926,10.);
#296=VECTOR('',#927,10.);
#297=VECTOR('',#928,10.);
#298=VECTOR('',#929,10.);
#299=VECTOR('',#932,10.);
#300=VECTOR('',#933,10.);
#301=VECTOR('',#934,10.);
#302=VECTOR('',#937,10.);
#303=VECTOR('',#938,10.);
#304=VECTOR('',#939,10.);
#305=VECTOR('',#942,10.);
#306=VECTOR('',#943,10.);
#307=VECTOR('',#956,10.);
#308=VECTOR('',#957,10.);
#309=VECTOR('',#958,10.);
#310=VECTOR('',#959,10.);
#311=VECTOR('',#962,10.);
#312=VECTOR('',#963,10.);
#313=VECTOR('',#964,10.);
#314=VECTOR('',#967,10.);
#315=VECTOR('',#968,10.);
#316=VECTOR('',#969,10.);
#317=VECTOR('',#972,10.);
#318=VECTOR('',#975,10.);
#319=VECTOR('',#1000,10.);
#320=VECTOR('',#1001,10.);
#321=VECTOR('',#1002,10.);
#322=VECTOR('',#1003,10.);
#323=VECTOR('',#1004,10.);
#324=VECTOR('',#1005,10.);
#325=VECTOR('',#1006,10.);
#326=VECTOR('',#1007,10.);
#327=VECTOR('',#1010,10.);
#328=VECTOR('',#1011,10.);
#329=VECTOR('',#1012,10.);
#330=VECTOR('',#1015,10.);
#331=VECTOR('',#1016,10.);
#332=VECTOR('',#1017,10.);
#333=VECTOR('',#1020,10.);
#334=VECTOR('',#1021,10.);
#335=VECTOR('',#1024,10.);
#336=VECTOR('',#1025,10.);
#337=VECTOR('',#1028,10.);
#338=VECTOR('',#1031,10.);
#339=VECTOR('',#1032,10.);
#340=VECTOR('',#1033,10.);
#341=VECTOR('',#1036,10.);
#342=VECTOR('',#1039,10.);
#343=VECTOR('',#1048,10.);
#344=VECTOR('',#1049,10.);
#345=VECTOR('',#1050,10.);
#346=VECTOR('',#1051,10.);
#347=VECTOR('',#1052,10.);
#348=VECTOR('',#1053,10.);
#349=VECTOR('',#1054,10.);
#350=VECTOR('',#1055,10.);
#351=VECTOR('',#1058,10.);
#352=VECTOR('',#1059,10.);
#353=VECTOR('',#1060,10.);
#354=VECTOR('',#1063,10.);
#355=VECTOR('',#1064,10.);
#356=VECTOR('',#1065,10.);
#357=VECTOR('',#1068,10.);
#358=VECTOR('',#1069,10.);
#359=VECTOR('',#1072,10.);
#360=VECTOR('',#1073,10.);
#361=VECTOR('',#1076,10.);
#362=VECTOR('',#1079,10.);
#363=VECTOR('',#1080,10.);
#364=VECTOR('',#1081,10.);
#365=VECTOR('',#1084,10.);
#366=VECTOR('',#1087,10.);
#367=VERTEX_POINT('',#1150);
#368=VERTEX_POINT('',#1151);
#369=VERTEX_POINT('',#1153);
#370=VERTEX_POINT('',#1155);
#371=VERTEX_POINT('',#1159);
#372=VERTEX_POINT('',#1161);
#373=VERTEX_POINT('',#1165);
#374=VERTEX_POINT('',#1167);
#375=VERTEX_POINT('',#1179);
#376=VERTEX_POINT('',#1180);
#377=VERTEX_POINT('',#1182);
#378=VERTEX_POINT('',#1184);
#379=VERTEX_POINT('',#1188);
#380=VERTEX_POINT('',#1190);
#381=VERTEX_POINT('',#1194);
#382=VERTEX_POINT('',#1195);
#383=VERTEX_POINT('',#1215);
#384=VERTEX_POINT('',#1216);
#385=VERTEX_POINT('',#1218);
#386=VERTEX_POINT('',#1220);
#387=VERTEX_POINT('',#1223);
#388=VERTEX_POINT('',#1224);
#389=VERTEX_POINT('',#1226);
#390=VERTEX_POINT('',#1228);
#391=VERTEX_POINT('',#1232);
#392=VERTEX_POINT('',#1234);
#393=VERTEX_POINT('',#1238);
#394=VERTEX_POINT('',#1240);
#395=VERTEX_POINT('',#1244);
#396=VERTEX_POINT('',#1248);
#397=VERTEX_POINT('',#1254);
#398=VERTEX_POINT('',#1256);
#399=VERTEX_POINT('',#1267);
#400=VERTEX_POINT('',#1268);
#401=VERTEX_POINT('',#1270);
#402=VERTEX_POINT('',#1272);
#403=VERTEX_POINT('',#1275);
#404=VERTEX_POINT('',#1276);
#405=VERTEX_POINT('',#1278);
#406=VERTEX_POINT('',#1280);
#407=VERTEX_POINT('',#1284);
#408=VERTEX_POINT('',#1286);
#409=VERTEX_POINT('',#1290);
#410=VERTEX_POINT('',#1292);
#411=VERTEX_POINT('',#1296);
#412=VERTEX_POINT('',#1300);
#413=VERTEX_POINT('',#1306);
#414=VERTEX_POINT('',#1308);
#415=EDGE_CURVE('',#367,#368,#223,.T.);
#416=EDGE_CURVE('',#368,#369,#224,.T.);
#417=EDGE_CURVE('',#369,#370,#225,.T.);
#418=EDGE_CURVE('',#370,#367,#226,.T.);
#419=EDGE_CURVE('',#367,#371,#227,.T.);
#420=EDGE_CURVE('',#371,#372,#228,.T.);
#421=EDGE_CURVE('',#372,#368,#229,.T.);
#422=EDGE_CURVE('',#371,#373,#230,.T.);
#423=EDGE_CURVE('',#373,#374,#231,.T.);
#424=EDGE_CURVE('',#374,#372,#232,.T.);
#425=EDGE_CURVE('',#373,#370,#233,.T.);
#426=EDGE_CURVE('',#369,#374,#234,.T.);
#427=EDGE_CURVE('',#375,#376,#235,.T.);
#428=EDGE_CURVE('',#376,#377,#236,.T.);
#429=EDGE_CURVE('',#377,#378,#237,.T.);
#430=EDGE_CURVE('',#378,#375,#238,.T.);
#431=EDGE_CURVE('',#377,#379,#239,.T.);
#432=EDGE_CURVE('',#379,#380,#240,.T.);
#433=EDGE_CURVE('',#380,#378,#241,.T.);
#434=EDGE_CURVE('',#381,#382,#242,.T.);
#435=EDGE_CURVE('',#382,#380,#243,.T.);
#436=EDGE_CURVE('',#379,#381,#244,.T.);
#437=EDGE_CURVE('',#376,#381,#245,.T.);
#438=EDGE_CURVE('',#375,#382,#246,.T.);
#439=EDGE_CURVE('',#383,#384,#247,.T.);
#440=EDGE_CURVE('',#384,#385,#248,.T.);
#441=EDGE_CURVE('',#385,#386,#249,.T.);
#442=EDGE_CURVE('',#386,#383,#250,.T.);
#443=EDGE_CURVE('',#387,#388,#251,.T.);
#444=EDGE_CURVE('',#388,#389,#252,.T.);
#445=EDGE_CURVE('',#389,#390,#253,.T.);
#446=EDGE_CURVE('',#390,#387,#254,.T.);
#447=EDGE_CURVE('',#391,#388,#255,.T.);
#448=EDGE_CURVE('',#387,#392,#256,.T.);
#449=EDGE_CURVE('',#392,#391,#257,.T.);
#450=EDGE_CURVE('',#393,#385,#258,.T.);
#451=EDGE_CURVE('',#384,#394,#259,.T.);
#452=EDGE_CURVE('',#394,#393,#260,.T.);
#453=EDGE_CURVE('',#383,#395,#261,.T.);
#454=EDGE_CURVE('',#395,#394,#262,.T.);
#455=EDGE_CURVE('',#386,#396,#263,.T.);
#456=EDGE_CURVE('',#396,#395,#264,.T.);
#457=EDGE_CURVE('',#393,#396,#265,.T.);
#458=EDGE_CURVE('',#392,#397,#266,.T.);
#459=EDGE_CURVE('',#397,#398,#267,.T.);
#460=EDGE_CURVE('',#398,#391,#268,.T.);
#461=EDGE_CURVE('',#390,#397,#269,.T.);
#462=EDGE_CURVE('',#389,#398,#270,.T.);
#463=EDGE_CURVE('',#399,#400,#271,.T.);
#464=EDGE_CURVE('',#400,#401,#272,.T.);
#465=EDGE_CURVE('',#401,#402,#273,.T.);
#466=EDGE_CURVE('',#402,#399,#274,.T.);
#467=EDGE_CURVE('',#403,#404,#275,.T.);
#468=EDGE_CURVE('',#404,#405,#276,.T.);
#469=EDGE_CURVE('',#405,#406,#277,.T.);
#470=EDGE_CURVE('',#406,#403,#278,.T.);
#471=EDGE_CURVE('',#407,#404,#279,.T.);
#472=EDGE_CURVE('',#403,#408,#280,.T.);
#473=EDGE_CURVE('',#408,#407,#281,.T.);
#474=EDGE_CURVE('',#409,#401,#282,.T.);
#475=EDGE_CURVE('',#400,#410,#283,.T.);
#476=EDGE_CURVE('',#410,#409,#284,.T.);
#477=EDGE_CURVE('',#399,#411,#285,.T.);
#478=EDGE_CURVE('',#411,#410,#286,.T.);
#479=EDGE_CURVE('',#402,#412,#287,.T.);
#480=EDGE_CURVE('',#412,#411,#288,.T.);
#481=EDGE_CURVE('',#409,#412,#289,.T.);
#482=EDGE_CURVE('',#408,#413,#290,.T.);
#483=EDGE_CURVE('',#413,#414,#291,.T.);
#484=EDGE_CURVE('',#414,#407,#292,.T.);
#485=EDGE_CURVE('',#406,#413,#293,.T.);
#486=EDGE_CURVE('',#405,#414,#294,.T.);
#487=ORIENTED_EDGE('',*,*,#415,.T.);
#488=ORIENTED_EDGE('',*,*,#416,.T.);
#489=ORIENTED_EDGE('',*,*,#417,.T.);
#490=ORIENTED_EDGE('',*,*,#418,.T.);
#491=ORIENTED_EDGE('',*,*,#419,.T.);
#492=ORIENTED_EDGE('',*,*,#420,.T.);
#493=ORIENTED_EDGE('',*,*,#421,.T.);
#494=ORIENTED_EDGE('',*,*,#415,.F.);
#495=ORIENTED_EDGE('',*,*,#422,.T.);
#496=ORIENTED_EDGE('',*,*,#423,.T.);
#497=ORIENTED_EDGE('',*,*,#424,.T.);
#498=ORIENTED_EDGE('',*,*,#420,.F.);
#499=ORIENTED_EDGE('',*,*,#425,.T.);
#500=ORIENTED_EDGE('',*,*,#417,.F.);
#501=ORIENTED_EDGE('',*,*,#426,.T.);
#502=ORIENTED_EDGE('',*,*,#423,.F.);
#503=ORIENTED_EDGE('',*,*,#427,.T.);
#504=ORIENTED_EDGE('',*,*,#428,.T.);
#505=ORIENTED_EDGE('',*,*,#429,.T.);
#506=ORIENTED_EDGE('',*,*,#430,.T.);
#507=ORIENTED_EDGE('',*,*,#431,.T.);
#508=ORIENTED_EDGE('',*,*,#432,.T.);
#509=ORIENTED_EDGE('',*,*,#433,.T.);
#510=ORIENTED_EDGE('',*,*,#429,.F.);
#511=ORIENTED_EDGE('',*,*,#434,.T.);
#512=ORIENTED_EDGE('',*,*,#435,.T.);
#513=ORIENTED_EDGE('',*,*,#432,.F.);
#514=ORIENTED_EDGE('',*,*,#436,.T.);
#515=ORIENTED_EDGE('',*,*,#428,.F.);
#516=ORIENTED_EDGE('',*,*,#437,.T.);
#517=ORIENTED_EDGE('',*,*,#436,.F.);
#518=ORIENTED_EDGE('',*,*,#431,.F.);
#519=ORIENTED_EDGE('',*,*,#437,.F.);
#520=ORIENTED_EDGE('',*,*,#427,.F.);
#521=ORIENTED_EDGE('',*,*,#438,.T.);
#522=ORIENTED_EDGE('',*,*,#434,.F.);
#523=ORIENTED_EDGE('',*,*,#430,.F.);
#524=ORIENTED_EDGE('',*,*,#433,.F.);
#525=ORIENTED_EDGE('',*,*,#435,.F.);
#526=ORIENTED_EDGE('',*,*,#438,.F.);
#527=ORIENTED_EDGE('',*,*,#439,.T.);
#528=ORIENTED_EDGE('',*,*,#440,.T.);
#529=ORIENTED_EDGE('',*,*,#441,.T.);
#530=ORIENTED_EDGE('',*,*,#442,.T.);
#531=ORIENTED_EDGE('',*,*,#443,.T.);
#532=ORIENTED_EDGE('',*,*,#444,.T.);
#533=ORIENTED_EDGE('',*,*,#445,.T.);
#534=ORIENTED_EDGE('',*,*,#446,.T.);
#535=ORIENTED_EDGE('',*,*,#447,.T.);
#536=ORIENTED_EDGE('',*,*,#443,.F.);
#537=ORIENTED_EDGE('',*,*,#448,.T.);
#538=ORIENTED_EDGE('',*,*,#449,.T.);
#539=ORIENTED_EDGE('',*,*,#450,.T.);
#540=ORIENTED_EDGE('',*,*,#440,.F.);
#541=ORIENTED_EDGE('',*,*,#451,.T.);
#542=ORIENTED_EDGE('',*,*,#452,.T.);
#543=ORIENTED_EDGE('',*,*,#439,.F.);
#544=ORIENTED_EDGE('',*,*,#453,.T.);
#545=ORIENTED_EDGE('',*,*,#454,.T.);
#546=ORIENTED_EDGE('',*,*,#451,.F.);
#547=ORIENTED_EDGE('',*,*,#455,.T.);
#548=ORIENTED_EDGE('',*,*,#456,.T.);
#549=ORIENTED_EDGE('',*,*,#453,.F.);
#550=ORIENTED_EDGE('',*,*,#442,.F.);
#551=ORIENTED_EDGE('',*,*,#441,.F.);
#552=ORIENTED_EDGE('',*,*,#450,.F.);
#553=ORIENTED_EDGE('',*,*,#457,.T.);
#554=ORIENTED_EDGE('',*,*,#455,.F.);
#555=ORIENTED_EDGE('',*,*,#457,.F.);
#556=ORIENTED_EDGE('',*,*,#452,.F.);
#557=ORIENTED_EDGE('',*,*,#454,.F.);
#558=ORIENTED_EDGE('',*,*,#456,.F.);
#559=ORIENTED_EDGE('',*,*,#449,.F.);
#560=ORIENTED_EDGE('',*,*,#458,.T.);
#561=ORIENTED_EDGE('',*,*,#459,.T.);
#562=ORIENTED_EDGE('',*,*,#460,.T.);
#563=ORIENTED_EDGE('',*,*,#446,.F.);
#564=ORIENTED_EDGE('',*,*,#461,.T.);
#565=ORIENTED_EDGE('',*,*,#458,.F.);
#566=ORIENTED_EDGE('',*,*,#448,.F.);
#567=ORIENTED_EDGE('',*,*,#462,.T.);
#568=ORIENTED_EDGE('',*,*,#459,.F.);
#569=ORIENTED_EDGE('',*,*,#461,.F.);
#570=ORIENTED_EDGE('',*,*,#445,.F.);
#571=ORIENTED_EDGE('',*,*,#444,.F.);
#572=ORIENTED_EDGE('',*,*,#447,.F.);
#573=ORIENTED_EDGE('',*,*,#460,.F.);
#574=ORIENTED_EDGE('',*,*,#462,.F.);
#575=ORIENTED_EDGE('',*,*,#463,.T.);
#576=ORIENTED_EDGE('',*,*,#464,.T.);
#577=ORIENTED_EDGE('',*,*,#465,.T.);
#578=ORIENTED_EDGE('',*,*,#466,.T.);
#579=ORIENTED_EDGE('',*,*,#467,.T.);
#580=ORIENTED_EDGE('',*,*,#468,.T.);
#581=ORIENTED_EDGE('',*,*,#469,.T.);
#582=ORIENTED_EDGE('',*,*,#470,.T.);
#583=ORIENTED_EDGE('',*,*,#471,.T.);
#584=ORIENTED_EDGE('',*,*,#467,.F.);
#585=ORIENTED_EDGE('',*,*,#472,.T.);
#586=ORIENTED_EDGE('',*,*,#473,.T.);
#587=ORIENTED_EDGE('',*,*,#474,.T.);
#588=ORIENTED_EDGE('',*,*,#464,.F.);
#589=ORIENTED_EDGE('',*,*,#475,.T.);
#590=ORIENTED_EDGE('',*,*,#476,.T.);
#591=ORIENTED_EDGE('',*,*,#463,.F.);
#592=ORIENTED_EDGE('',*,*,#477,.T.);
#593=ORIENTED_EDGE('',*,*,#478,.T.);
#594=ORIENTED_EDGE('',*,*,#475,.F.);
#595=ORIENTED_EDGE('',*,*,#479,.T.);
#596=ORIENTED_EDGE('',*,*,#480,.T.);
#597=ORIENTED_EDGE('',*,*,#477,.F.);
#598=ORIENTED_EDGE('',*,*,#466,.F.);
#599=ORIENTED_EDGE('',*,*,#465,.F.);
#600=ORIENTED_EDGE('',*,*,#474,.F.);
#601=ORIENTED_EDGE('',*,*,#481,.T.);
#602=ORIENTED_EDGE('',*,*,#479,.F.);
#603=ORIENTED_EDGE('',*,*,#481,.F.);
#604=ORIENTED_EDGE('',*,*,#476,.F.);
#605=ORIENTED_EDGE('',*,*,#478,.F.);
#606=ORIENTED_EDGE('',*,*,#480,.F.);
#607=ORIENTED_EDGE('',*,*,#473,.F.);
#608=ORIENTED_EDGE('',*,*,#482,.T.);
#609=ORIENTED_EDGE('',*,*,#483,.T.);
#610=ORIENTED_EDGE('',*,*,#484,.T.);
#611=ORIENTED_EDGE('',*,*,#470,.F.);
#612=ORIENTED_EDGE('',*,*,#485,.T.);
#613=ORIENTED_EDGE('',*,*,#482,.F.);
#614=ORIENTED_EDGE('',*,*,#472,.F.);
#615=ORIENTED_EDGE('',*,*,#486,.T.);
#616=ORIENTED_EDGE('',*,*,#483,.F.);
#617=ORIENTED_EDGE('',*,*,#485,.F.);
#618=ORIENTED_EDGE('',*,*,#469,.F.);
#619=ORIENTED_EDGE('',*,*,#468,.F.);
#620=ORIENTED_EDGE('',*,*,#471,.F.);
#621=ORIENTED_EDGE('',*,*,#484,.F.);
#622=ORIENTED_EDGE('',*,*,#486,.F.);
#623=PLANE('',#843);
#624=PLANE('',#844);
#625=PLANE('',#845);
#626=PLANE('',#846);
#627=PLANE('',#852);
#628=PLANE('',#853);
#629=PLANE('',#854);
#630=PLANE('',#855);
#631=PLANE('',#856);
#632=PLANE('',#857);
#633=PLANE('',#868);
#634=PLANE('',#869);
#635=PLANE('',#870);
#636=PLANE('',#871);
#637=PLANE('',#872);
#638=PLANE('',#873);
#639=PLANE('',#874);
#640=PLANE('',#875);
#641=PLANE('',#876);
#642=PLANE('',#877);
#643=PLANE('',#880);
#644=PLANE('',#881);
#645=PLANE('',#882);
#646=PLANE('',#883);
#647=PLANE('',#884);
#648=PLANE('',#885);
#649=PLANE('',#886);
#650=PLANE('',#887);
#651=PLANE('',#888);
#652=PLANE('',#889);
#653=ADVANCED_FACE('',(#159),#623,.T.);
#654=ADVANCED_FACE('',(#160),#624,.T.);
#655=ADVANCED_FACE('',(#161),#625,.T.);
#656=ADVANCED_FACE('',(#162),#626,.F.);
#657=ADVANCED_FACE('',(#163),#627,.T.);
#658=ADVANCED_FACE('',(#164),#628,.F.);
#659=ADVANCED_FACE('',(#165),#629,.F.);
#660=ADVANCED_FACE('',(#166),#630,.T.);
#661=ADVANCED_FACE('',(#167),#631,.T.);
#662=ADVANCED_FACE('',(#168),#632,.F.);
#663=ADVANCED_FACE('',(#169,#11),#633,.T.);
#664=ADVANCED_FACE('',(#170),#634,.T.);
#665=ADVANCED_FACE('',(#171),#635,.T.);
#666=ADVANCED_FACE('',(#172),#636,.F.);
#667=ADVANCED_FACE('',(#173),#637,.F.);
#668=ADVANCED_FACE('',(#174),#638,.T.);
#669=ADVANCED_FACE('',(#175,#12),#639,.F.);
#670=ADVANCED_FACE('',(#176),#640,.T.);
#671=ADVANCED_FACE('',(#177),#641,.F.);
#672=ADVANCED_FACE('',(#178),#642,.F.);
#673=ADVANCED_FACE('',(#179,#13),#643,.T.);
#674=ADVANCED_FACE('',(#180),#644,.T.);
#675=ADVANCED_FACE('',(#181),#645,.T.);
#676=ADVANCED_FACE('',(#182),#646,.F.);
#677=ADVANCED_FACE('',(#183),#647,.F.);
#678=ADVANCED_FACE('',(#184),#648,.T.);
#679=ADVANCED_FACE('',(#185,#14),#649,.F.);
#680=ADVANCED_FACE('',(#186),#650,.T.);
#681=ADVANCED_FACE('',(#187),#651,.F.);
#682=ADVANCED_FACE('',(#188),#652,.F.);
#683=OPEN_SHELL('',(#653,#654,#655,#656));
#684=SHELL_BASED_SURFACE_MODEL('\X2\7F51683C5B9E4F53\X0\1',(#683));
#685=DERIVED_UNIT_ELEMENT(#713,1.);
#686=DERIVED_UNIT_ELEMENT(#1379,-3.);
#687=DERIVED_UNIT_ELEMENT(#713,1.);
#688=DERIVED_UNIT_ELEMENT(#1379,-3.);
#689=DERIVED_UNIT_ELEMENT(#713,1.);
#690=DERIVED_UNIT_ELEMENT(#1379,-3.);
#691=DERIVED_UNIT_ELEMENT(#713,1.);
#692=DERIVED_UNIT_ELEMENT(#1379,-3.);
#693=DERIVED_UNIT_ELEMENT(#713,1.);
#694=DERIVED_UNIT_ELEMENT(#1379,-3.);
#695=DERIVED_UNIT_ELEMENT(#713,1.);
#696=DERIVED_UNIT_ELEMENT(#1379,-3.);
#697=DERIVED_UNIT_ELEMENT(#713,1.);
#698=DERIVED_UNIT_ELEMENT(#1379,-3.);
#699=DERIVED_UNIT_ELEMENT(#713,1.);
#700=DERIVED_UNIT_ELEMENT(#1379,-3.);
#701=DERIVED_UNIT_ELEMENT(#713,1.);
#702=DERIVED_UNIT_ELEMENT(#1379,-3.);
#703=DERIVED_UNIT_ELEMENT(#713,1.);
#704=DERIVED_UNIT_ELEMENT(#1379,-3.);
#705=DERIVED_UNIT_ELEMENT(#713,1.);
#706=DERIVED_UNIT_ELEMENT(#1379,-3.);
#707=DERIVED_UNIT_ELEMENT(#713,1.);
#708=DERIVED_UNIT_ELEMENT(#1379,-3.);
#709=DERIVED_UNIT_ELEMENT(#713,1.);
#710=DERIVED_UNIT_ELEMENT(#1379,-3.);
#711=DERIVED_UNIT_ELEMENT(#713,1.);
#712=DERIVED_UNIT_ELEMENT(#1379,-3.);
#713=(
MASS_UNIT()
NAMED_UNIT(*)
SI_UNIT(.KILO.,.GRAM.)
);
#714=DERIVED_UNIT((#685,#686));
#715=DERIVED_UNIT((#687,#688));
#716=DERIVED_UNIT((#689,#690));
#717=DERIVED_UNIT((#691,#692));
#718=DERIVED_UNIT((#693,#694));
#719=DERIVED_UNIT((#695,#696));
#720=DERIVED_UNIT((#697,#698));
#721=DERIVED_UNIT((#699,#700));
#722=DERIVED_UNIT((#701,#702));
#723=DERIVED_UNIT((#703,#704));
#724=DERIVED_UNIT((#705,#706));
#725=DERIVED_UNIT((#707,#708));
#726=DERIVED_UNIT((#709,#710));
#727=DERIVED_UNIT((#711,#712));
#728=MEASURE_REPRESENTATION_ITEM('density measure',
POSITIVE_RATIO_MEASURE(7850.),#714);
#729=MEASURE_REPRESENTATION_ITEM('density measure',
POSITIVE_RATIO_MEASURE(7850.),#715);
#730=MEASURE_REPRESENTATION_ITEM('density measure',
POSITIVE_RATIO_MEASURE(7850.),#716);
#731=MEASURE_REPRESENTATION_ITEM('density measure',
POSITIVE_RATIO_MEASURE(7850.),#717);
#732=MEASURE_REPRESENTATION_ITEM('density measure',
POSITIVE_RATIO_MEASURE(7850.),#718);
#733=MEASURE_REPRESENTATION_ITEM('density measure',
POSITIVE_RATIO_MEASURE(7850.),#719);
#734=MEASURE_REPRESENTATION_ITEM('density measure',
POSITIVE_RATIO_MEASURE(7850.),#720);
#735=MEASURE_REPRESENTATION_ITEM('density measure',
POSITIVE_RATIO_MEASURE(7850.),#721);
#736=MEASURE_REPRESENTATION_ITEM('density measure',
POSITIVE_RATIO_MEASURE(7850.),#722);
#737=MEASURE_REPRESENTATION_ITEM('density measure',
POSITIVE_RATIO_MEASURE(7850.),#723);
#738=MEASURE_REPRESENTATION_ITEM('density measure',
POSITIVE_RATIO_MEASURE(7850.),#724);
#739=MEASURE_REPRESENTATION_ITEM('density measure',
POSITIVE_RATIO_MEASURE(7850.),#725);
#740=MEASURE_REPRESENTATION_ITEM('density measure',
POSITIVE_RATIO_MEASURE(7850.),#726);
#741=MEASURE_REPRESENTATION_ITEM('density measure',
POSITIVE_RATIO_MEASURE(7850.),#727);
#742=PROPERTY_DEFINITION_REPRESENTATION(#812,#770);
#743=PROPERTY_DEFINITION_REPRESENTATION(#813,#771);
#744=PROPERTY_DEFINITION_REPRESENTATION(#814,#772);
#745=PROPERTY_DEFINITION_REPRESENTATION(#815,#773);
#746=PROPERTY_DEFINITION_REPRESENTATION(#816,#774);
#747=PROPERTY_DEFINITION_REPRESENTATION(#817,#775);
#748=PROPERTY_DEFINITION_REPRESENTATION(#818,#776);
#749=PROPERTY_DEFINITION_REPRESENTATION(#819,#777);
#750=PROPERTY_DEFINITION_REPRESENTATION(#820,#778);
#751=PROPERTY_DEFINITION_REPRESENTATION(#821,#779);
#752=PROPERTY_DEFINITION_REPRESENTATION(#822,#780);
#753=PROPERTY_DEFINITION_REPRESENTATION(#823,#781);
#754=PROPERTY_DEFINITION_REPRESENTATION(#824,#782);
#755=PROPERTY_DEFINITION_REPRESENTATION(#825,#783);
#756=PROPERTY_DEFINITION_REPRESENTATION(#826,#784);
#757=PROPERTY_DEFINITION_REPRESENTATION(#827,#785);
#758=PROPERTY_DEFINITION_REPRESENTATION(#828,#786);
#759=PROPERTY_DEFINITION_REPRESENTATION(#829,#787);
#760=PROPERTY_DEFINITION_REPRESENTATION(#830,#788);
#761=PROPERTY_DEFINITION_REPRESENTATION(#831,#789);
#762=PROPERTY_DEFINITION_REPRESENTATION(#832,#790);
#763=PROPERTY_DEFINITION_REPRESENTATION(#833,#791);
#764=PROPERTY_DEFINITION_REPRESENTATION(#834,#792);
#765=PROPERTY_DEFINITION_REPRESENTATION(#835,#793);
#766=PROPERTY_DEFINITION_REPRESENTATION(#836,#794);
#767=PROPERTY_DEFINITION_REPRESENTATION(#837,#795);
#768=PROPERTY_DEFINITION_REPRESENTATION(#838,#796);
#769=PROPERTY_DEFINITION_REPRESENTATION(#839,#797);
#770=REPRESENTATION('material name',(#798),#1363);
#771=REPRESENTATION('density',(#728),#1363);
#772=REPRESENTATION('material name',(#799),#1364);
#773=REPRESENTATION('density',(#729),#1364);
#774=REPRESENTATION('material name',(#800),#1365);
#775=REPRESENTATION('density',(#730),#1365);
#776=REPRESENTATION('material name',(#801),#1366);
#777=REPRESENTATION('density',(#731),#1366);
#778=REPRESENTATION('material name',(#802),#1367);
#779=REPRESENTATION('density',(#732),#1367);
#780=REPRESENTATION('material name',(#803),#1368);
#781=REPRESENTATION('density',(#733),#1368);
#782=REPRESENTATION('material name',(#804),#1369);
#783=REPRESENTATION('density',(#734),#1369);
#784=REPRESENTATION('material name',(#805),#1370);
#785=REPRESENTATION('density',(#735),#1370);
#786=REPRESENTATION('material name',(#806),#1371);
#787=REPRESENTATION('density',(#736),#1371);
#788=REPRESENTATION('material name',(#807),#1372);
#789=REPRESENTATION('density',(#737),#1372);
#790=REPRESENTATION('material name',(#808),#1373);
#791=REPRESENTATION('density',(#738),#1373);
#792=REPRESENTATION('material name',(#809),#1374);
#793=REPRESENTATION('density',(#739),#1374);
#794=REPRESENTATION('material name',(#810),#1375);
#795=REPRESENTATION('density',(#740),#1375);
#796=REPRESENTATION('material name',(#811),#1376);
#797=REPRESENTATION('density',(#741),#1376);
#798=DESCRIPTIVE_REPRESENTATION_ITEM('\X2\94A2\X0\','\X2\94A2\X0\');
#799=DESCRIPTIVE_REPRESENTATION_ITEM('\X2\94A2\X0\','\X2\94A2\X0\');
#800=DESCRIPTIVE_REPRESENTATION_ITEM('\X2\94A2\X0\','\X2\94A2\X0\');
#801=DESCRIPTIVE_REPRESENTATION_ITEM('\X2\94A2\X0\','\X2\94A2\X0\');
#802=DESCRIPTIVE_REPRESENTATION_ITEM('\X2\94A2\X0\','\X2\94A2\X0\');
#803=DESCRIPTIVE_REPRESENTATION_ITEM('\X2\94A2\X0\','\X2\94A2\X0\');
#804=DESCRIPTIVE_REPRESENTATION_ITEM('\X2\94A2\X0\','\X2\94A2\X0\');
#805=DESCRIPTIVE_REPRESENTATION_ITEM('\X2\94A2\X0\','\X2\94A2\X0\');
#806=DESCRIPTIVE_REPRESENTATION_ITEM('\X2\94A2\X0\','\X2\94A2\X0\');
#807=DESCRIPTIVE_REPRESENTATION_ITEM('\X2\94A2\X0\','\X2\94A2\X0\');
#808=DESCRIPTIVE_REPRESENTATION_ITEM('\X2\94A2\X0\','\X2\94A2\X0\');
#809=DESCRIPTIVE_REPRESENTATION_ITEM('\X2\94A2\X0\','\X2\94A2\X0\');
#810=DESCRIPTIVE_REPRESENTATION_ITEM('\X2\94A2\X0\','\X2\94A2\X0\');
#811=DESCRIPTIVE_REPRESENTATION_ITEM('\X2\94A2\X0\','\X2\94A2\X0\');
#812=PROPERTY_DEFINITION('material property','material name',#1465);
#813=PROPERTY_DEFINITION('material property','density of part',#1465);
#814=PROPERTY_DEFINITION('material property','material name',#1466);
#815=PROPERTY_DEFINITION('material property','density of part',#1466);
#816=PROPERTY_DEFINITION('material property','material name',#1467);
#817=PROPERTY_DEFINITION('material property','density of part',#1467);
#818=PROPERTY_DEFINITION('material property','material name',#1468);
#819=PROPERTY_DEFINITION('material property','density of part',#1468);
#820=PROPERTY_DEFINITION('material property','material name',#1469);
#821=PROPERTY_DEFINITION('material property','density of part',#1469);
#822=PROPERTY_DEFINITION('material property','material name',#1470);
#823=PROPERTY_DEFINITION('material property','density of part',#1470);
#824=PROPERTY_DEFINITION('material property','material name',#1471);
#825=PROPERTY_DEFINITION('material property','density of part',#1471);
#826=PROPERTY_DEFINITION('material property','material name',#1472);
#827=PROPERTY_DEFINITION('material property','density of part',#1472);
#828=PROPERTY_DEFINITION('material property','material name',#1473);
#829=PROPERTY_DEFINITION('material property','density of part',#1473);
#830=PROPERTY_DEFINITION('material property','material name',#1474);
#831=PROPERTY_DEFINITION('material property','density of part',#1474);
#832=PROPERTY_DEFINITION('material property','material name',#1475);
#833=PROPERTY_DEFINITION('material property','density of part',#1475);
#834=PROPERTY_DEFINITION('material property','material name',#1476);
#835=PROPERTY_DEFINITION('material property','density of part',#1476);
#836=PROPERTY_DEFINITION('material property','material name',#1477);
#837=PROPERTY_DEFINITION('material property','density of part',#1477);
#838=PROPERTY_DEFINITION('material property','material name',#1478);
#839=PROPERTY_DEFINITION('material property','density of part',#1478);
#840=AXIS2_PLACEMENT_3D('',#1146,#918,#919);
#841=AXIS2_PLACEMENT_3D('',#1147,#920,#921);
#842=AXIS2_PLACEMENT_3D('',#1148,#922,#923);
#843=AXIS2_PLACEMENT_3D('',#1149,#924,#925);
#844=AXIS2_PLACEMENT_3D('',#1158,#930,#931);
#845=AXIS2_PLACEMENT_3D('',#1164,#935,#936);
#846=AXIS2_PLACEMENT_3D('',#1170,#940,#941);
#847=AXIS2_PLACEMENT_3D('',#1173,#944,#945);
#848=AXIS2_PLACEMENT_3D('',#1174,#946,#947);
#849=AXIS2_PLACEMENT_3D('',#1175,#948,#949);
#850=AXIS2_PLACEMENT_3D('',#1176,#950,#951);
#851=AXIS2_PLACEMENT_3D('',#1177,#952,#953);
#852=AXIS2_PLACEMENT_3D('',#1178,#954,#955);
#853=AXIS2_PLACEMENT_3D('',#1187,#960,#961);
#854=AXIS2_PLACEMENT_3D('',#1193,#965,#966);
#855=AXIS2_PLACEMENT_3D('',#1199,#970,#971);
#856=AXIS2_PLACEMENT_3D('',#1201,#973,#974);
#857=AXIS2_PLACEMENT_3D('',#1203,#976,#977);
#858=AXIS2_PLACEMENT_3D('',#1204,#978,#979);
#859=AXIS2_PLACEMENT_3D('',#1205,#980,#981);
#860=AXIS2_PLACEMENT_3D('',#1206,#982,#983);
#861=AXIS2_PLACEMENT_3D('',#1207,#984,#985);
#862=AXIS2_PLACEMENT_3D('',#1208,#986,#987);
#863=AXIS2_PLACEMENT_3D('',#1209,#988,#989);
#864=AXIS2_PLACEMENT_3D('',#1210,#990,#991);
#865=AXIS2_PLACEMENT_3D('',#1211,#992,#993);
#866=AXIS2_PLACEMENT_3D('',#1212,#994,#995);
#867=AXIS2_PLACEMENT_3D('',#1213,#996,#997);
#868=AXIS2_PLACEMENT_3D('',#1214,#998,#999);
#869=AXIS2_PLACEMENT_3D('',#1231,#1008,#1009);
#870=AXIS2_PLACEMENT_3D('',#1237,#1013,#1014);
#871=AXIS2_PLACEMENT_3D('',#1243,#1018,#1019);
#872=AXIS2_PLACEMENT_3D('',#1247,#1022,#1023);
#873=AXIS2_PLACEMENT_3D('',#1251,#1026,#1027);
#874=AXIS2_PLACEMENT_3D('',#1253,#1029,#1030);
#875=AXIS2_PLACEMENT_3D('',#1259,#1034,#1035);
#876=AXIS2_PLACEMENT_3D('',#1261,#1037,#1038);
#877=AXIS2_PLACEMENT_3D('',#1263,#1040,#1041);
#878=AXIS2_PLACEMENT_3D('',#1264,#1042,#1043);
#879=AXIS2_PLACEMENT_3D('',#1265,#1044,#1045);
#880=AXIS2_PLACEMENT_3D('',#1266,#1046,#1047);
#881=AXIS2_PLACEMENT_3D('',#1283,#1056,#1057);
#882=AXIS2_PLACEMENT_3D('',#1289,#1061,#1062);
#883=AXIS2_PLACEMENT_3D('',#1295,#1066,#1067);
#884=AXIS2_PLACEMENT_3D('',#1299,#1070,#1071);
#885=AXIS2_PLACEMENT_3D('',#1303,#1074,#1075);
#886=AXIS2_PLACEMENT_3D('',#1305,#1077,#1078);
#887=AXIS2_PLACEMENT_3D('',#1311,#1082,#1083);
#888=AXIS2_PLACEMENT_3D('',#1313,#1085,#1086);
#889=AXIS2_PLACEMENT_3D('',#1315,#1088,#1089);
#890=AXIS2_PLACEMENT_3D('',#1316,#1090,#1091);
#891=AXIS2_PLACEMENT_3D('',#1317,#1092,#1093);
#892=AXIS2_PLACEMENT_3D('',#1318,#1094,#1095);
#893=AXIS2_PLACEMENT_3D('',#1319,#1096,#1097);
#894=AXIS2_PLACEMENT_3D('',#1320,#1098,#1099);
#895=AXIS2_PLACEMENT_3D('',#1321,#1100,#1101);
#896=AXIS2_PLACEMENT_3D('',#1322,#1102,#1103);
#897=AXIS2_PLACEMENT_3D('',#1323,#1104,#1105);
#898=AXIS2_PLACEMENT_3D('',#1324,#1106,#1107);
#899=AXIS2_PLACEMENT_3D('',#1325,#1108,#1109);
#900=AXIS2_PLACEMENT_3D('',#1326,#1110,#1111);
#901=AXIS2_PLACEMENT_3D('',#1327,#1112,#1113);
#902=AXIS2_PLACEMENT_3D('',#1328,#1114,#1115);
#903=AXIS2_PLACEMENT_3D('',#1329,#1116,#1117);
#904=AXIS2_PLACEMENT_3D('',#1330,#1118,#1119);
#905=AXIS2_PLACEMENT_3D('',#1331,#1120,#1121);
#906=AXIS2_PLACEMENT_3D('',#1332,#1122,#1123);
#907=AXIS2_PLACEMENT_3D('',#1333,#1124,#1125);
#908=AXIS2_PLACEMENT_3D('',#1334,#1126,#1127);
#909=AXIS2_PLACEMENT_3D('',#1335,#1128,#1129);
#910=AXIS2_PLACEMENT_3D('',#1336,#1130,#1131);
#911=AXIS2_PLACEMENT_3D('',#1337,#1132,#1133);
#912=AXIS2_PLACEMENT_3D('',#1338,#1134,#1135);
#913=AXIS2_PLACEMENT_3D('',#1339,#1136,#1137);
#914=AXIS2_PLACEMENT_3D('',#1340,#1138,#1139);
#915=AXIS2_PLACEMENT_3D('',#1341,#1140,#1141);
#916=AXIS2_PLACEMENT_3D('',#1342,#1142,#1143);
#917=AXIS2_PLACEMENT_3D('',#1343,#1144,#1145);
#918=DIRECTION('axis',(0.,0.,1.));
#919=DIRECTION('refdir',(1.,0.,0.));
#920=DIRECTION('axis',(0.,0.,1.));
#921=DIRECTION('refdir',(1.,0.,0.));
#922=DIRECTION('axis',(0.,0.,1.));
#923=DIRECTION('refdir',(1.,0.,0.));
#924=DIRECTION('center_axis',(0.,-0.707106781186548,0.707106781186548));
#925=DIRECTION('ref_axis',(1.,0.,0.));
#926=DIRECTION('',(-1.,0.,0.));
#927=DIRECTION('',(0.,-0.707106781186548,-0.707106781186548));
#928=DIRECTION('',(1.,0.,0.));
#929=DIRECTION('',(0.,0.707106781186548,0.707106781186548));
#930=DIRECTION('center_axis',(0.,0.,1.));
#931=DIRECTION('ref_axis',(1.,0.,0.));
#932=DIRECTION('',(0.,1.,0.));
#933=DIRECTION('',(-1.,0.,0.));
#934=DIRECTION('',(0.,-1.,0.));
#935=DIRECTION('center_axis',(0.,0.707106781186548,0.707106781186548));
#936=DIRECTION('ref_axis',(1.,0.,0.));
#937=DIRECTION('',(0.,0.707106781186548,-0.707106781186548));
#938=DIRECTION('',(-1.,0.,0.));
#939=DIRECTION('',(0.,-0.707106781186548,0.707106781186548));
#940=DIRECTION('center_axis',(0.,0.,1.));
#941=DIRECTION('ref_axis',(1.,0.,0.));
#942=DIRECTION('',(0.,-1.,0.));
#943=DIRECTION('',(0.,1.,0.));
#944=DIRECTION('',(3.01311997145238E-16,-4.41927264275981E-15,-1.));
#945=DIRECTION('',(1.,-1.66533453693894E-16,5.53893807134781E-16));
#946=DIRECTION('',(-4.163336342332E-17,0.999999999999999,-3.04727441375287E-15));
#947=DIRECTION('',(1.,-1.24900090270453E-16,-6.93889390390685E-18));
#948=DIRECTION('',(1.06184249411294E-17,2.62413673697363E-15,1.));
#949=DIRECTION('',(1.,-1.24900090270453E-16,-6.93889390390685E-18));
#950=DIRECTION('',(4.163336342332E-17,-0.999999999999999,2.38114059897777E-15));
#951=DIRECTION('',(1.,-1.24900090270453E-16,-6.93889390390685E-18));
#952=DIRECTION('axis',(0.,0.,1.));
#953=DIRECTION('refdir',(1.,0.,0.));
#954=DIRECTION('center_axis',(1.,0.,0.));
#955=DIRECTION('ref_axis',(0.,0.,-1.));
#956=DIRECTION('',(0.,0.,1.));
#957=DIRECTION('',(0.,-1.,0.));
#958=DIRECTION('',(0.,0.,-1.));
#959=DIRECTION('',(0.,1.,0.));
#960=DIRECTION('center_axis',(0.,1.,0.));
#961=DIRECTION('ref_axis',(0.,0.,1.));
#962=DIRECTION('',(-1.,0.,0.));
#963=DIRECTION('',(0.,0.,-1.));
#964=DIRECTION('',(1.,0.,0.));
#965=DIRECTION('center_axis',(1.,0.,0.));
#966=DIRECTION('ref_axis',(0.,0.,-1.));
#967=DIRECTION('',(0.,0.,-1.));
#968=DIRECTION('',(0.,-1.,0.));
#969=DIRECTION('',(0.,1.,0.));
#970=DIRECTION('center_axis',(0.,0.,1.));
#971=DIRECTION('ref_axis',(1.,0.,0.));
#972=DIRECTION('',(-1.,0.,0.));
#973=DIRECTION('center_axis',(0.,1.,0.));
#974=DIRECTION('ref_axis',(0.,0.,1.));
#975=DIRECTION('',(-1.,0.,0.));
#976=DIRECTION('center_axis',(0.,0.,1.));
#977=DIRECTION('ref_axis',(1.,0.,0.));
#978=DIRECTION('axis',(0.,0.,1.));
#979=DIRECTION('refdir',(1.,0.,0.));
#980=DIRECTION('axis',(0.,0.,1.));
#981=DIRECTION('refdir',(1.,0.,0.));
#982=DIRECTION('axis',(0.,0.,1.));
#983=DIRECTION('refdir',(1.,0.,0.));
#984=DIRECTION('axis',(0.,0.,1.));
#985=DIRECTION('refdir',(1.,0.,0.));
#986=DIRECTION('axis',(0.,0.,1.));
#987=DIRECTION('refdir',(1.,0.,0.));
#988=DIRECTION('axis',(0.,0.,1.));
#989=DIRECTION('refdir',(1.,0.,0.));
#990=DIRECTION('axis',(0.,0.,1.));
#991=DIRECTION('refdir',(1.,0.,0.));
#992=DIRECTION('axis',(0.,0.,1.));
#993=DIRECTION('refdir',(1.,0.,0.));
#994=DIRECTION('axis',(0.,0.,1.));
#995=DIRECTION('refdir',(1.,0.,0.));
#996=DIRECTION('axis',(0.,0.,1.));
#997=DIRECTION('refdir',(1.,0.,0.));
#998=DIRECTION('center_axis',(0.,0.,1.));
#999=DIRECTION('ref_axis',(1.,0.,0.));
#1000=DIRECTION('',(1.,0.,0.));
#1001=DIRECTION('',(0.,1.,0.));
#1002=DIRECTION('',(-1.,0.,0.));
#1003=DIRECTION('',(0.,-1.,0.));
#1004=DIRECTION('',(0.,1.,0.));
#1005=DIRECTION('',(1.,0.,0.));
#1006=DIRECTION('',(0.,-1.,0.));
#1007=DIRECTION('',(-1.,0.,0.));
#1008=DIRECTION('center_axis',(1.,0.,0.));
#1009=DIRECTION('ref_axis',(0.,0.,-1.));
#1010=DIRECTION('',(0.,0.,1.));
#1011=DIRECTION('',(0.,0.,-1.));
#1012=DIRECTION('',(0.,1.,0.));
#1013=DIRECTION('center_axis',(1.,0.,0.));
#1014=DIRECTION('ref_axis',(0.,0.,-1.));
#1015=DIRECTION('',(0.,0.,1.));
#1016=DIRECTION('',(0.,0.,-1.));
#1017=DIRECTION('',(0.,1.,0.));
#1018=DIRECTION('center_axis',(0.,1.,0.));
#1019=DIRECTION('ref_axis',(0.,0.,1.));
#1020=DIRECTION('',(0.,0.,-1.));
#1021=DIRECTION('',(1.,0.,0.));
#1022=DIRECTION('center_axis',(1.,0.,0.));
#1023=DIRECTION('ref_axis',(0.,0.,-1.));
#1024=DIRECTION('',(0.,0.,-1.));
#1025=DIRECTION('',(0.,-1.,0.));
#1026=DIRECTION('center_axis',(0.,1.,0.));
#1027=DIRECTION('ref_axis',(0.,0.,1.));
#1028=DIRECTION('',(-1.,0.,0.));
#1029=DIRECTION('center_axis',(0.,0.,1.));
#1030=DIRECTION('ref_axis',(1.,0.,0.));
#1031=DIRECTION('',(1.,0.,0.));
#1032=DIRECTION('',(0.,1.,0.));
#1033=DIRECTION('',(-1.,0.,0.));
#1034=DIRECTION('center_axis',(0.,1.,0.));
#1035=DIRECTION('ref_axis',(0.,0.,1.));
#1036=DIRECTION('',(0.,0.,-1.));
#1037=DIRECTION('center_axis',(1.,0.,0.));
#1038=DIRECTION('ref_axis',(0.,0.,-1.));
#1039=DIRECTION('',(0.,0.,-1.));
#1040=DIRECTION('center_axis',(0.,1.,0.));
#1041=DIRECTION('ref_axis',(0.,0.,1.));
#1042=DIRECTION('axis',(0.,0.,1.));
#1043=DIRECTION('refdir',(1.,0.,0.));
#1044=DIRECTION('axis',(0.,0.,1.));
#1045=DIRECTION('refdir',(1.,0.,0.));
#1046=DIRECTION('center_axis',(0.,0.,1.));
#1047=DIRECTION('ref_axis',(1.,0.,0.));
#1048=DIRECTION('',(1.,0.,0.));
#1049=DIRECTION('',(0.,1.,0.));
#1050=DIRECTION('',(-1.,0.,0.));
#1051=DIRECTION('',(0.,-1.,0.));
#1052=DIRECTION('',(0.,1.,0.));
#1053=DIRECTION('',(1.,0.,0.));
#1054=DIRECTION('',(0.,-1.,0.));
#1055=DIRECTION('',(-1.,0.,0.));
#1056=DIRECTION('center_axis',(1.,0.,0.));
#1057=DIRECTION('ref_axis',(0.,0.,-1.));
#1058=DIRECTION('',(0.,0.,1.));
#1059=DIRECTION('',(0.,0.,-1.));
#1060=DIRECTION('',(0.,1.,0.));
#1061=DIRECTION('center_axis',(1.,0.,0.));
#1062=DIRECTION('ref_axis',(0.,0.,-1.));
#1063=DIRECTION('',(0.,0.,1.));
#1064=DIRECTION('',(0.,0.,-1.));
#1065=DIRECTION('',(0.,1.,0.));
#1066=DIRECTION('center_axis',(0.,1.,0.));
#1067=DIRECTION('ref_axis',(0.,0.,1.));
#1068=DIRECTION('',(0.,0.,-1.));
#1069=DIRECTION('',(1.,0.,0.));
#1070=DIRECTION('center_axis',(1.,0.,0.));
#1071=DIRECTION('ref_axis',(0.,0.,-1.));
#1072=DIRECTION('',(0.,0.,-1.));
#1073=DIRECTION('',(0.,-1.,0.));
#1074=DIRECTION('center_axis',(0.,1.,0.));
#1075=DIRECTION('ref_axis',(0.,0.,1.));
#1076=DIRECTION('',(-1.,0.,0.));
#1077=DIRECTION('center_axis',(0.,0.,1.));
#1078=DIRECTION('ref_axis',(1.,0.,0.));
#1079=DIRECTION('',(1.,0.,0.));
#1080=DIRECTION('',(0.,1.,0.));
#1081=DIRECTION('',(-1.,0.,0.));
#1082=DIRECTION('center_axis',(0.,1.,0.));
#1083=DIRECTION('ref_axis',(0.,0.,1.));
#1084=DIRECTION('',(0.,0.,-1.));
#1085=DIRECTION('center_axis',(1.,0.,0.));
#1086=DIRECTION('ref_axis',(0.,0.,-1.));
#1087=DIRECTION('',(0.,0.,-1.));
#1088=DIRECTION('center_axis',(0.,1.,0.));
#1089=DIRECTION('ref_axis',(0.,0.,1.));
#1090=DIRECTION('',(-4.163336342332E-17,0.999999999999999,-3.01951883813724E-15));
#1091=DIRECTION('',(1.,-1.24900090270453E-16,-6.93889390390685E-18));
#1092=DIRECTION('',(-5.14770522264606E-16,5.02989530630365E-15,1.));
#1093=DIRECTION('',(1.,-1.22081809830554E-28,5.14770522264606E-16));
#1094=DIRECTION('',(-4.163336342332E-17,0.999999999999999,-3.01951883813724E-15));
#1095=DIRECTION('',(1.,-1.24900090270453E-16,-6.93889390390685E-18));
#1096=DIRECTION('',(0.,0.,1.));
#1097=DIRECTION('',(1.,0.,0.));
#1098=DIRECTION('',(-4.163336342332E-17,0.999999999999999,-3.01951883813724E-15));
#1099=DIRECTION('',(1.,-1.24900090270453E-16,-6.93889390390685E-18));
#1100=DIRECTION('',(-0.999999999999998,2.43541035571742E-18,-2.42861286636752E-16));
#1101=DIRECTION('',(-2.44819606896455E-16,3.01271479559243E-15,1.));
#1102=DIRECTION('',(-2.62188712275063E-16,5.02989530630365E-15,1.));
#1103=DIRECTION('',(1.,-1.66533453693894E-16,5.14770522264607E-16));
#1104=DIRECTION('',(8.76094647675822E-17,0.999999999999999,-3.01951883813724E-15));
#1105=DIRECTION('',(1.,-2.19445907842978E-16,-6.93889390390711E-18));
#1106=DIRECTION('',(-2.62188709948804E-16,4.98829518749111E-15,1.));
#1107=DIRECTION('',(1.,-1.24900090270453E-16,2.65868240986026E-16));
#1108=DIRECTION('',(-2.62188712275063E-16,4.98829518749111E-15,1.));
#1109=DIRECTION('',(1.,-6.9388939039194E-17,2.65868240986026E-16));
#1110=DIRECTION('',(-5.14770522264606E-16,5.02989530630365E-15,1.));
#1111=DIRECTION('',(1.,-1.22081809830554E-28,5.14770522264606E-16));
#1112=DIRECTION('',(-4.163336342332E-17,0.999999999999999,-3.01951883813724E-15));
#1113=DIRECTION('',(1.,-1.24900090270453E-16,-6.93889390390685E-18));
#1114=DIRECTION('',(-4.163336342332E-17,0.999999999999999,-3.01951883813724E-15));
#1115=DIRECTION('',(1.,-1.24900090270453E-16,-6.93889390390685E-18));
#1116=DIRECTION('',(1.06184249411294E-17,2.62413673697363E-15,1.));
#1117=DIRECTION('',(1.,-1.24900090270453E-16,-6.93889390390685E-18));
#1118=DIRECTION('',(-1.,1.24900090270453E-16,-2.42861286636753E-16));
#1119=DIRECTION('',(-2.39181755599531E-16,2.62413673697363E-15,1.));
#1120=DIRECTION('',(1.27100364926916E-32,1.,-3.46944695195361E-16));
#1121=DIRECTION('',(1.,1.38777878078145E-17,2.77555756156289E-17));
#1122=DIRECTION('',(-0.999999999999995,9.73880556902722E-16,-2.42861286636754E-16));
#1123=DIRECTION('',(-1.14530416137997E-16,3.01271479559243E-15,1.));
#1124=DIRECTION('',(1.45125519528914E-17,1.76912699708638E-16,0.999999999999999));
#1125=DIRECTION('',(1.,2.35922392732846E-16,5.20417042793042E-17));
#1126=DIRECTION('',(1.27100364926916E-32,1.,-3.46944695195361E-16));
#1127=DIRECTION('',(1.,1.38777878078145E-17,2.77555756156289E-17));
#1128=DIRECTION('',(-2.7120811470552E-17,1.03792460148646E-17,1.));
#1129=DIRECTION('',(1.,1.38777878078145E-17,2.77555756156289E-17));
#1130=DIRECTION('',(-2.7120811470552E-17,1.03792460148646E-17,1.));
#1131=DIRECTION('',(1.,1.38777878078145E-17,2.77555756156289E-17));
#1132=DIRECTION('',(-2.7120811470552E-17,1.03792460148646E-17,1.));
#1133=DIRECTION('',(1.,1.38777878078145E-17,2.77555756156289E-17));
#1134=DIRECTION('',(1.27100364926916E-32,1.,-3.46944695195361E-16));
#1135=DIRECTION('',(1.,1.38777878078145E-17,2.77555756156289E-17));
#1136=DIRECTION('',(1.27100364926916E-32,1.,-3.46944695195361E-16));
#1137=DIRECTION('',(1.,1.38777878078145E-17,2.77555756156289E-17));
#1138=DIRECTION('',(-2.7120811470552E-17,1.03792460148646E-17,1.));
#1139=DIRECTION('',(1.,1.38777878078145E-17,2.77555756156289E-17));
#1140=DIRECTION('',(-1.,-5.55111512312573E-17,-4.94718155330529E-14));
#1141=DIRECTION('',(-4.94299106187339E-14,2.62413673697363E-15,0.999999999999999));
#1142=DIRECTION('',(-1.,3.33066907387547E-16,-5.16947595841089E-16));
#1143=DIRECTION('',(-5.23221645007251E-16,8.54491076410018E-17,1.));
#1144=DIRECTION('',(-0.999999999999999,8.08408244859575E-16,-4.94718155330529E-14));
#1145=DIRECTION('',(-4.92841442352022E-14,2.62413673697362E-15,0.999999999999999));
#1146=CARTESIAN_POINT('',(0.,0.,0.));
#1147=CARTESIAN_POINT('',(0.,0.,0.));
#1148=CARTESIAN_POINT('',(0.,0.,0.));
#1149=CARTESIAN_POINT('Origin',(50.,7.5,7.5));
#1150=CARTESIAN_POINT('',(100.,15.,15.));
#1151=CARTESIAN_POINT('',(0.,15.,15.));
#1152=CARTESIAN_POINT('',(50.,15.,15.));
#1153=CARTESIAN_POINT('',(0.,0.,0.));
#1154=CARTESIAN_POINT('',(0.,7.5,7.5));
#1155=CARTESIAN_POINT('',(100.,0.,0.));
#1156=CARTESIAN_POINT('',(50.,-1.11022302462516E-15,-1.11022302462516E-15));
#1157=CARTESIAN_POINT('',(100.,7.5,7.5));
#1158=CARTESIAN_POINT('Origin',(50.,315.,15.));
#1159=CARTESIAN_POINT('',(100.,615.,15.));
#1160=CARTESIAN_POINT('',(100.,315.,15.));
#1161=CARTESIAN_POINT('',(0.,615.,15.));
#1162=CARTESIAN_POINT('',(50.,615.,15.));
#1163=CARTESIAN_POINT('',(0.,315.,15.));
#1164=CARTESIAN_POINT('Origin',(50.,622.5,7.5));
#1165=CARTESIAN_POINT('',(100.,630.,0.));
#1166=CARTESIAN_POINT('',(100.,622.5,7.5));
#1167=CARTESIAN_POINT('',(0.,630.,0.));
#1168=CARTESIAN_POINT('',(50.,630.,-1.11022302462516E-15));
#1169=CARTESIAN_POINT('',(0.,622.5,7.5));
#1170=CARTESIAN_POINT('Origin',(50.,315.,0.));
#1171=CARTESIAN_POINT('',(100.,315.,0.));
#1172=CARTESIAN_POINT('',(0.,315.,0.));
#1173=CARTESIAN_POINT('',(-2703.93643153933,571.456817001381,506.45275748779));
#1174=CARTESIAN_POINT('',(-2703.93643183735,-58.5431834754568,506.452757487793));
#1175=CARTESIAN_POINT('',(-2703.93643183735,-58.5431834754587,-123.547242512207));
#1176=CARTESIAN_POINT('',(-2703.93643183735,571.456816524541,-123.547242512209));
#1177=CARTESIAN_POINT('',(0.,0.,0.));
#1178=CARTESIAN_POINT('Origin',(100.,8.00000011920929,12.5));
#1179=CARTESIAN_POINT('',(100.,16.0000002384186,0.));
#1180=CARTESIAN_POINT('',(100.,16.0000002384186,25.));
#1181=CARTESIAN_POINT('',(100.,16.0000002384186,12.5));
#1182=CARTESIAN_POINT('',(100.,0.,25.));
#1183=CARTESIAN_POINT('',(100.,8.00000011920929,25.));
#1184=CARTESIAN_POINT('',(100.,0.,0.));
#1185=CARTESIAN_POINT('',(100.,0.,12.5));
#1186=CARTESIAN_POINT('',(100.,8.00000011920929,0.));
#1187=CARTESIAN_POINT('Origin',(50.,0.,12.5));
#1188=CARTESIAN_POINT('',(0.,0.,25.));
#1189=CARTESIAN_POINT('',(50.,0.,25.));
#1190=CARTESIAN_POINT('',(0.,0.,0.));
#1191=CARTESIAN_POINT('',(0.,0.,12.5));
#1192=CARTESIAN_POINT('',(50.,0.,0.));
#1193=CARTESIAN_POINT('Origin',(0.,8.00000011920929,12.5));
#1194=CARTESIAN_POINT('',(0.,16.0000002384186,25.));
#1195=CARTESIAN_POINT('',(0.,16.0000002384186,0.));
#1196=CARTESIAN_POINT('',(0.,16.0000002384186,12.5));
#1197=CARTESIAN_POINT('',(0.,8.00000011920929,0.));
#1198=CARTESIAN_POINT('',(0.,8.00000011920929,25.));
#1199=CARTESIAN_POINT('Origin',(50.,8.00000011920929,25.));
#1200=CARTESIAN_POINT('',(50.,16.0000002384186,25.));
#1201=CARTESIAN_POINT('Origin',(50.,16.0000002384186,12.5));
#1202=CARTESIAN_POINT('',(50.,16.0000002384186,0.));
#1203=CARTESIAN_POINT('Origin',(50.,8.00000011920929,0.));
#1204=CARTESIAN_POINT('',(0.,0.,0.));
#1205=CARTESIAN_POINT('',(0.,0.,0.));
#1206=CARTESIAN_POINT('',(0.,0.,0.));
#1207=CARTESIAN_POINT('',(0.,0.,0.));
#1208=CARTESIAN_POINT('',(0.,0.,0.));
#1209=CARTESIAN_POINT('',(0.,0.,0.));
#1210=CARTESIAN_POINT('',(0.,0.,0.));
#1211=CARTESIAN_POINT('',(0.,0.,0.));
#1212=CARTESIAN_POINT('',(0.,0.,0.));
#1213=CARTESIAN_POINT('',(0.,0.,0.));
#1214=CARTESIAN_POINT('Origin',(320.,320.,15.));
#1215=CARTESIAN_POINT('',(-19.9999988079071,-19.9999988079071,15.));
#1216=CARTESIAN_POINT('',(660.,-19.9999988079071,15.));
#1217=CARTESIAN_POINT('',(320.,-19.9999988079071,15.));
#1218=CARTESIAN_POINT('',(660.,660.,15.));
#1219=CARTESIAN_POINT('',(660.,320.,15.));
#1220=CARTESIAN_POINT('',(-19.9999988079071,660.,15.));
#1221=CARTESIAN_POINT('',(320.,660.,15.));
#1222=CARTESIAN_POINT('',(-19.9999988079071,320.,15.));
#1223=CARTESIAN_POINT('',(19.9999988079071,19.9999988079071,15.));
#1224=CARTESIAN_POINT('',(19.9999988079071,620.,15.));
#1225=CARTESIAN_POINT('',(19.9999988079071,320.,15.));
#1226=CARTESIAN_POINT('',(620.,620.,15.));
#1227=CARTESIAN_POINT('',(320.,620.,15.));
#1228=CARTESIAN_POINT('',(620.,19.9999988079071,15.));
#1229=CARTESIAN_POINT('',(620.,320.,15.));
#1230=CARTESIAN_POINT('',(320.,19.9999988079071,15.));
#1231=CARTESIAN_POINT('Origin',(19.9999988079071,319.999999403954,9.99999985098839));
#1232=CARTESIAN_POINT('',(19.9999988079071,620.,4.99999970197678));
#1233=CARTESIAN_POINT('',(19.9999988079071,620.,9.99999985098839));
#1234=CARTESIAN_POINT('',(19.9999988079071,19.9999988079071,4.99999970197678));
#1235=CARTESIAN_POINT('',(19.9999988079071,19.9999988079071,9.99999985098839));
#1236=CARTESIAN_POINT('',(19.9999988079071,319.999999403954,4.99999970197678));
#1237=CARTESIAN_POINT('Origin',(660.,320.000000596046,9.99999985098839));
#1238=CARTESIAN_POINT('',(660.,660.,4.99999970197678));
#1239=CARTESIAN_POINT('',(660.,660.,9.99999985098839));
#1240=CARTESIAN_POINT('',(660.,-19.9999988079071,4.99999970197678));
#1241=CARTESIAN_POINT('',(660.,-19.9999988079071,9.99999985098839));
#1242=CARTESIAN_POINT('',(660.,320.000000596046,4.99999970197678));
#1243=CARTESIAN_POINT('Origin',(320.000000596046,-19.9999988079071,9.99999985098839));
#1244=CARTESIAN_POINT('',(-19.9999988079071,-19.9999988079071,4.99999970197678));
#1245=CARTESIAN_POINT('',(-19.9999988079071,-19.9999988079071,9.99999985098839));
#1246=CARTESIAN_POINT('',(320.000000596046,-19.9999988079071,4.99999970197678));
#1247=CARTESIAN_POINT('Origin',(-19.9999988079071,320.000000596046,9.99999985098839));
#1248=CARTESIAN_POINT('',(-19.9999988079071,660.,4.99999970197678));
#1249=CARTESIAN_POINT('',(-19.9999988079071,660.,9.99999985098839));
#1250=CARTESIAN_POINT('',(-19.9999988079071,320.000000596046,4.99999970197678));
#1251=CARTESIAN_POINT('Origin',(320.000000596046,660.,9.99999985098839));
#1252=CARTESIAN_POINT('',(320.000000596046,660.,4.99999970197678));
#1253=CARTESIAN_POINT('Origin',(320.,320.,4.99999970197678));
#1254=CARTESIAN_POINT('',(620.,19.9999988079071,4.99999970197678));
#1255=CARTESIAN_POINT('',(320.,19.9999988079071,4.99999970197678));
#1256=CARTESIAN_POINT('',(620.,620.,4.99999970197678));
#1257=CARTESIAN_POINT('',(620.,320.,4.99999970197678));
#1258=CARTESIAN_POINT('',(320.,620.,4.99999970197678));
#1259=CARTESIAN_POINT('Origin',(319.999999403954,19.9999988079071,9.99999985098839));
#1260=CARTESIAN_POINT('',(620.,19.9999988079071,9.99999985098839));
#1261=CARTESIAN_POINT('Origin',(620.,319.999999403954,9.99999985098839));
#1262=CARTESIAN_POINT('',(620.,620.,9.99999985098839));
#1263=CARTESIAN_POINT('Origin',(319.999999403954,620.,9.99999985098839));
#1264=CARTESIAN_POINT('',(0.,0.,0.));
#1265=CARTESIAN_POINT('',(0.,0.,0.));
#1266=CARTESIAN_POINT('Origin',(320.,320.,15.));
#1267=CARTESIAN_POINT('',(-19.9999988079071,-19.9999988079071,15.));
#1268=CARTESIAN_POINT('',(660.,-19.9999988079071,15.));
#1269=CARTESIAN_POINT('',(320.,-19.9999988079071,15.));
#1270=CARTESIAN_POINT('',(660.,660.,15.));
#1271=CARTESIAN_POINT('',(660.,320.,15.));
#1272=CARTESIAN_POINT('',(-19.9999988079071,660.,15.));
#1273=CARTESIAN_POINT('',(320.,660.,15.));
#1274=CARTESIAN_POINT('',(-19.9999988079071,320.,15.));
#1275=CARTESIAN_POINT('',(19.9999988079071,19.9999988079071,15.));
#1276=CARTESIAN_POINT('',(19.9999988079071,620.,15.));
#1277=CARTESIAN_POINT('',(19.9999988079071,320.,15.));
#1278=CARTESIAN_POINT('',(620.,620.,15.));
#1279=CARTESIAN_POINT('',(320.,620.,15.));
#1280=CARTESIAN_POINT('',(620.,19.9999988079071,15.));
#1281=CARTESIAN_POINT('',(620.,320.,15.));
#1282=CARTESIAN_POINT('',(320.,19.9999988079071,15.));
#1283=CARTESIAN_POINT('Origin',(19.9999988079071,319.999999403954,9.99999985098839));
#1284=CARTESIAN_POINT('',(19.9999988079071,620.,4.99999970197678));
#1285=CARTESIAN_POINT('',(19.9999988079071,620.,9.99999985098839));
#1286=CARTESIAN_POINT('',(19.9999988079071,19.9999988079071,4.99999970197678));
#1287=CARTESIAN_POINT('',(19.9999988079071,19.9999988079071,9.99999985098839));
#1288=CARTESIAN_POINT('',(19.9999988079071,319.999999403954,4.99999970197678));
#1289=CARTESIAN_POINT('Origin',(660.,320.000000596046,9.99999985098839));
#1290=CARTESIAN_POINT('',(660.,660.,4.99999970197678));
#1291=CARTESIAN_POINT('',(660.,660.,9.99999985098839));
#1292=CARTESIAN_POINT('',(660.,-19.9999988079071,4.99999970197678));
#1293=CARTESIAN_POINT('',(660.,-19.9999988079071,9.99999985098839));
#1294=CARTESIAN_POINT('',(660.,320.000000596046,4.99999970197678));
#1295=CARTESIAN_POINT('Origin',(320.000000596046,-19.9999988079071,9.99999985098839));
#1296=CARTESIAN_POINT('',(-19.9999988079071,-19.9999988079071,4.99999970197678));
#1297=CARTESIAN_POINT('',(-19.9999988079071,-19.9999988079071,9.99999985098839));
#1298=CARTESIAN_POINT('',(320.000000596046,-19.9999988079071,4.99999970197678));
#1299=CARTESIAN_POINT('Origin',(-19.9999988079071,320.000000596046,9.99999985098839));
#1300=CARTESIAN_POINT('',(-19.9999988079071,660.,4.99999970197678));
#1301=CARTESIAN_POINT('',(-19.9999988079071,660.,9.99999985098839));
#1302=CARTESIAN_POINT('',(-19.9999988079071,320.000000596046,4.99999970197678));
#1303=CARTESIAN_POINT('Origin',(320.000000596046,660.,9.99999985098839));
#1304=CARTESIAN_POINT('',(320.000000596046,660.,4.99999970197678));
#1305=CARTESIAN_POINT('Origin',(320.,320.,4.99999970197678));
#1306=CARTESIAN_POINT('',(620.,19.9999988079071,4.99999970197678));
#1307=CARTESIAN_POINT('',(320.,19.9999988079071,4.99999970197678));
#1308=CARTESIAN_POINT('',(620.,620.,4.99999970197678));
#1309=CARTESIAN_POINT('',(620.,320.,4.99999970197678));
#1310=CARTESIAN_POINT('',(320.,620.,4.99999970197678));
#1311=CARTESIAN_POINT('Origin',(319.999999403954,19.9999988079071,9.99999985098839));
#1312=CARTESIAN_POINT('',(620.,19.9999988079071,9.99999985098839));
#1313=CARTESIAN_POINT('Origin',(620.,319.999999403954,9.99999985098839));
#1314=CARTESIAN_POINT('',(620.,620.,9.99999985098839));
#1315=CARTESIAN_POINT('Origin',(319.999999403954,620.,9.99999985098839));
#1316=CARTESIAN_POINT('',(173.799633962038,583.296092755377,204.452757487791));
#1317=CARTESIAN_POINT('',(173.79963426006,445.296093470633,511.45275748779));
#1318=CARTESIAN_POINT('',(173.799633962038,583.296092755376,389.452757487791));
#1319=CARTESIAN_POINT('',(2877.73606579939,11.8392762308348,4.99999999999999));
#1320=CARTESIAN_POINT('',(173.799633962038,-71.7039072446226,204.452757487793));
#1321=CARTESIAN_POINT('',(288.799633962038,-51.703906052531,-123.54724191616));
#1322=CARTESIAN_POINT('',(173.79963426006,260.296093232215,511.452757487791));
#1323=CARTESIAN_POINT('',(173.799633962037,-71.7039072446231,19.4527572493752));
#1324=CARTESIAN_POINT('',(173.799634260061,445.296093470633,-143.547241320116));
#1325=CARTESIAN_POINT('',(173.79963426006,260.296093232214,-143.547241320115));
#1326=CARTESIAN_POINT('',(173.79963426006,75.2960929937966,511.452757487792));
#1327=CARTESIAN_POINT('',(173.799633962038,583.296092755376,19.4527572493728));
#1328=CARTESIAN_POINT('',(173.799633962038,-71.7039072446224,389.452757487793));
#1329=CARTESIAN_POINT('',(173.799633962038,75.296092755376,-143.547242512207));
#1330=CARTESIAN_POINT('',(178.799633962038,-51.7039072446239,-123.547242512207));
#1331=CARTESIAN_POINT('',(3781.91033204554,694.795102589925,676.677978817812));
#1332=CARTESIAN_POINT('',(288.799633962039,-51.703906052531,-123.547241916158));
#1333=CARTESIAN_POINT('',(3394.03064136309,1035.59481968608,1620.88285231644));
#1334=CARTESIAN_POINT('',(3781.91033204554,39.7951025899243,306.676878817813));
#1335=CARTESIAN_POINT('',(3781.91033204554,556.796202589925,143.677978817812));
#1336=CARTESIAN_POINT('',(3781.91033204554,371.795102589925,143.677978817812));
#1337=CARTESIAN_POINT('',(3781.91033204554,186.795102589925,798.677978817812));
#1338=CARTESIAN_POINT('',(3781.91033204554,694.795102589924,306.676878817813));
#1339=CARTESIAN_POINT('',(3781.91033204554,39.7951025899247,676.677978817812));
#1340=CARTESIAN_POINT('',(3781.91033204554,186.795102589925,143.677978817812));
#1341=CARTESIAN_POINT('',(178.799633962037,-51.7039072446238,-123.547242512063));
#1342=CARTESIAN_POINT('',(-1034.79558500199,-43.3364308363985,123.779159189977));
#1343=CARTESIAN_POINT('',(168.799633664013,-51.7039072446239,-123.547242512063));
#1344=UNCERTAINTY_MEASURE_WITH_UNIT(LENGTH_MEASURE(0.01),#1378,
'DISTANCE_ACCURACY_VALUE',
'Maximum model space distance between geometric entities at asserted c
onnectivities');
#1345=UNCERTAINTY_MEASURE_WITH_UNIT(LENGTH_MEASURE(0.01),#1378,
'DISTANCE_ACCURACY_VALUE',
'Maximum model space distance between geometric entities at asserted c
onnectivities');
#1346=UNCERTAINTY_MEASURE_WITH_UNIT(LENGTH_MEASURE(0.01),#1378,
'DISTANCE_ACCURACY_VALUE',
'Maximum model space distance between geometric entities at asserted c
onnectivities');
#1347=UNCERTAINTY_MEASURE_WITH_UNIT(LENGTH_MEASURE(0.01),#1378,
'DISTANCE_ACCURACY_VALUE',
'Maximum model space distance between geometric entities at asserted c
onnectivities');
#1348=UNCERTAINTY_MEASURE_WITH_UNIT(LENGTH_MEASURE(0.01),#1378,
'DISTANCE_ACCURACY_VALUE',
'Maximum model space distance between geometric entities at asserted c
onnectivities');
#1349=UNCERTAINTY_MEASURE_WITH_UNIT(LENGTH_MEASURE(0.01),#1378,
'DISTANCE_ACCURACY_VALUE',
'Maximum model space distance between geometric entities at asserted c
onnectivities');
#1350=UNCERTAINTY_MEASURE_WITH_UNIT(LENGTH_MEASURE(0.01),#1378,
'DISTANCE_ACCURACY_VALUE',
'Maximum model space distance between geometric entities at asserted c
onnectivities');
#1351=UNCERTAINTY_MEASURE_WITH_UNIT(LENGTH_MEASURE(0.01),#1378,
'DISTANCE_ACCURACY_VALUE',
'Maximum model space distance between geometric entities at asserted c
onnectivities');
#1352=UNCERTAINTY_MEASURE_WITH_UNIT(LENGTH_MEASURE(0.01),#1378,
'DISTANCE_ACCURACY_VALUE',
'Maximum model space distance between geometric entities at asserted c
onnectivities');
#1353=UNCERTAINTY_MEASURE_WITH_UNIT(LENGTH_MEASURE(0.01),#1378,
'DISTANCE_ACCURACY_VALUE',
'Maximum model space distance between geometric entities at asserted c
onnectivities');
#1354=UNCERTAINTY_MEASURE_WITH_UNIT(LENGTH_MEASURE(0.01),#1378,
'DISTANCE_ACCURACY_VALUE',
'Maximum model space distance between geometric entities at asserted c
onnectivities');
#1355=UNCERTAINTY_MEASURE_WITH_UNIT(LENGTH_MEASURE(0.01),#1378,
'DISTANCE_ACCURACY_VALUE',
'Maximum model space distance between geometric entities at asserted c
onnectivities');
#1356=UNCERTAINTY_MEASURE_WITH_UNIT(LENGTH_MEASURE(0.01),#1378,
'DISTANCE_ACCURACY_VALUE',
'Maximum model space distance between geometric entities at asserted c
onnectivities');
#1357=UNCERTAINTY_MEASURE_WITH_UNIT(LENGTH_MEASURE(0.01),#1378,
'DISTANCE_ACCURACY_VALUE',
'Maximum model space distance between geometric entities at asserted c
onnectivities');
#1358=UNCERTAINTY_MEASURE_WITH_UNIT(LENGTH_MEASURE(0.01),#1378,
'DISTANCE_ACCURACY_VALUE',
'Maximum model space distance between geometric entities at asserted c
onnectivities');
#1359=UNCERTAINTY_MEASURE_WITH_UNIT(LENGTH_MEASURE(0.01),#1378,
'DISTANCE_ACCURACY_VALUE',
'Maximum model space distance between geometric entities at asserted c
onnectivities');
#1360=UNCERTAINTY_MEASURE_WITH_UNIT(LENGTH_MEASURE(0.01),#1378,
'DISTANCE_ACCURACY_VALUE',
'Maximum model space distance between geometric entities at asserted c
onnectivities');
#1361=(
GEOMETRIC_REPRESENTATION_CONTEXT(3)
GLOBAL_UNCERTAINTY_ASSIGNED_CONTEXT((#1344))
GLOBAL_UNIT_ASSIGNED_CONTEXT((#1378,#1380,#1381))
REPRESENTATION_CONTEXT('','3D')
);
#1362=(
GEOMETRIC_REPRESENTATION_CONTEXT(3)
GLOBAL_UNCERTAINTY_ASSIGNED_CONTEXT((#1345))
GLOBAL_UNIT_ASSIGNED_CONTEXT((#1378,#1380,#1381))
REPRESENTATION_CONTEXT('','3D')
);
#1363=(
GEOMETRIC_REPRESENTATION_CONTEXT(3)
GLOBAL_UNCERTAINTY_ASSIGNED_CONTEXT((#1346))
GLOBAL_UNIT_ASSIGNED_CONTEXT((#1378,#1380,#1381))
REPRESENTATION_CONTEXT('','3D')
);
#1364=(
GEOMETRIC_REPRESENTATION_CONTEXT(3)
GLOBAL_UNCERTAINTY_ASSIGNED_CONTEXT((#1347))
GLOBAL_UNIT_ASSIGNED_CONTEXT((#1378,#1380,#1381))
REPRESENTATION_CONTEXT('','3D')
);
#1365=(
GEOMETRIC_REPRESENTATION_CONTEXT(3)
GLOBAL_UNCERTAINTY_ASSIGNED_CONTEXT((#1348))
GLOBAL_UNIT_ASSIGNED_CONTEXT((#1378,#1380,#1381))
REPRESENTATION_CONTEXT('','3D')
);
#1366=(
GEOMETRIC_REPRESENTATION_CONTEXT(3)
GLOBAL_UNCERTAINTY_ASSIGNED_CONTEXT((#1349))
GLOBAL_UNIT_ASSIGNED_CONTEXT((#1378,#1380,#1381))
REPRESENTATION_CONTEXT('','3D')
);
#1367=(
GEOMETRIC_REPRESENTATION_CONTEXT(3)
GLOBAL_UNCERTAINTY_ASSIGNED_CONTEXT((#1350))
GLOBAL_UNIT_ASSIGNED_CONTEXT((#1378,#1380,#1381))
REPRESENTATION_CONTEXT('','3D')
);
#1368=(
GEOMETRIC_REPRESENTATION_CONTEXT(3)
GLOBAL_UNCERTAINTY_ASSIGNED_CONTEXT((#1351))
GLOBAL_UNIT_ASSIGNED_CONTEXT((#1378,#1380,#1381))
REPRESENTATION_CONTEXT('','3D')
);
#1369=(
GEOMETRIC_REPRESENTATION_CONTEXT(3)
GLOBAL_UNCERTAINTY_ASSIGNED_CONTEXT((#1352))
GLOBAL_UNIT_ASSIGNED_CONTEXT((#1378,#1380,#1381))
REPRESENTATION_CONTEXT('','3D')
);
#1370=(
GEOMETRIC_REPRESENTATION_CONTEXT(3)
GLOBAL_UNCERTAINTY_ASSIGNED_CONTEXT((#1353))
GLOBAL_UNIT_ASSIGNED_CONTEXT((#1378,#1380,#1381))
REPRESENTATION_CONTEXT('','3D')
);
#1371=(
GEOMETRIC_REPRESENTATION_CONTEXT(3)
GLOBAL_UNCERTAINTY_ASSIGNED_CONTEXT((#1354))
GLOBAL_UNIT_ASSIGNED_CONTEXT((#1378,#1380,#1381))
REPRESENTATION_CONTEXT('','3D')
);
#1372=(
GEOMETRIC_REPRESENTATION_CONTEXT(3)
GLOBAL_UNCERTAINTY_ASSIGNED_CONTEXT((#1355))
GLOBAL_UNIT_ASSIGNED_CONTEXT((#1378,#1380,#1381))
REPRESENTATION_CONTEXT('','3D')
);
#1373=(
GEOMETRIC_REPRESENTATION_CONTEXT(3)
GLOBAL_UNCERTAINTY_ASSIGNED_CONTEXT((#1356))
GLOBAL_UNIT_ASSIGNED_CONTEXT((#1378,#1380,#1381))
REPRESENTATION_CONTEXT('','3D')
);
#1374=(
GEOMETRIC_REPRESENTATION_CONTEXT(3)
GLOBAL_UNCERTAINTY_ASSIGNED_CONTEXT((#1357))
GLOBAL_UNIT_ASSIGNED_CONTEXT((#1378,#1380,#1381))
REPRESENTATION_CONTEXT('','3D')
);
#1375=(
GEOMETRIC_REPRESENTATION_CONTEXT(3)
GLOBAL_UNCERTAINTY_ASSIGNED_CONTEXT((#1358))
GLOBAL_UNIT_ASSIGNED_CONTEXT((#1378,#1380,#1381))
REPRESENTATION_CONTEXT('','3D')
);
#1376=(
GEOMETRIC_REPRESENTATION_CONTEXT(3)
GLOBAL_UNCERTAINTY_ASSIGNED_CONTEXT((#1359))
GLOBAL_UNIT_ASSIGNED_CONTEXT((#1378,#1380,#1381))
REPRESENTATION_CONTEXT('','3D')
);
#1377=(
GEOMETRIC_REPRESENTATION_CONTEXT(3)
GLOBAL_UNCERTAINTY_ASSIGNED_CONTEXT((#1360))
GLOBAL_UNIT_ASSIGNED_CONTEXT((#1378,#1380,#1381))
REPRESENTATION_CONTEXT('','3D')
);
#1378=(
LENGTH_UNIT()
NAMED_UNIT(*)
SI_UNIT(.MILLI.,.METRE.)
);
#1379=(
LENGTH_UNIT()
NAMED_UNIT(*)
SI_UNIT($,.METRE.)
);
#1380=(
NAMED_UNIT(*)
PLANE_ANGLE_UNIT()
SI_UNIT($,.RADIAN.)
);
#1381=(
NAMED_UNIT(*)
SI_UNIT($,.STERADIAN.)
SOLID_ANGLE_UNIT()
);
#1382=SHAPE_DEFINITION_REPRESENTATION(#1398,#1446);
#1383=SHAPE_DEFINITION_REPRESENTATION(#1399,#1447);
#1384=SHAPE_DEFINITION_REPRESENTATION(#1400,#1448);
#1385=SHAPE_DEFINITION_REPRESENTATION(#1405,#1449);
#1386=SHAPE_DEFINITION_REPRESENTATION(#1406,#1450);
#1387=SHAPE_DEFINITION_REPRESENTATION(#1407,#1451);
#1388=SHAPE_DEFINITION_REPRESENTATION(#1408,#1452);
#1389=SHAPE_DEFINITION_REPRESENTATION(#1409,#1453);
#1390=SHAPE_DEFINITION_REPRESENTATION(#1410,#1454);
#1391=SHAPE_DEFINITION_REPRESENTATION(#1411,#1455);
#1392=SHAPE_DEFINITION_REPRESENTATION(#1412,#1456);
#1393=SHAPE_DEFINITION_REPRESENTATION(#1413,#1457);
#1394=SHAPE_DEFINITION_REPRESENTATION(#1414,#1458);
#1395=SHAPE_DEFINITION_REPRESENTATION(#1415,#1459);
#1396=SHAPE_DEFINITION_REPRESENTATION(#1416,#1460);
#1397=SHAPE_DEFINITION_REPRESENTATION(#1417,#1461);
#1398=PRODUCT_DEFINITION_SHAPE('',$,#1463);
#1399=PRODUCT_DEFINITION_SHAPE('',$,#1464);
#1400=PRODUCT_DEFINITION_SHAPE('',$,#1465);
#1401=PRODUCT_DEFINITION_SHAPE($,$,#123);
#1402=PRODUCT_DEFINITION_SHAPE($,$,#124);
#1403=PRODUCT_DEFINITION_SHAPE($,$,#125);
#1404=PRODUCT_DEFINITION_SHAPE($,$,#126);
#1405=PRODUCT_DEFINITION_SHAPE('',$,#1466);
#1406=PRODUCT_DEFINITION_SHAPE('',$,#1467);
#1407=PRODUCT_DEFINITION_SHAPE('',$,#1468);
#1408=PRODUCT_DEFINITION_SHAPE('',$,#1469);
#1409=PRODUCT_DEFINITION_SHAPE('',$,#1470);
#1410=PRODUCT_DEFINITION_SHAPE('',$,#1471);
#1411=PRODUCT_DEFINITION_SHAPE('',$,#1472);
#1412=PRODUCT_DEFINITION_SHAPE('',$,#1473);
#1413=PRODUCT_DEFINITION_SHAPE('',$,#1474);
#1414=PRODUCT_DEFINITION_SHAPE('',$,#1475);
#1415=PRODUCT_DEFINITION_SHAPE('',$,#1476);
#1416=PRODUCT_DEFINITION_SHAPE('',$,#1477);
#1417=PRODUCT_DEFINITION_SHAPE('',$,#1478);
#1418=PRODUCT_DEFINITION_SHAPE($,$,#127);
#1419=PRODUCT_DEFINITION_SHAPE($,$,#128);
#1420=PRODUCT_DEFINITION_SHAPE($,$,#129);
#1421=PRODUCT_DEFINITION_SHAPE($,$,#130);
#1422=PRODUCT_DEFINITION_SHAPE($,$,#131);
#1423=PRODUCT_DEFINITION_SHAPE($,$,#132);
#1424=PRODUCT_DEFINITION_SHAPE($,$,#133);
#1425=PRODUCT_DEFINITION_SHAPE($,$,#134);
#1426=PRODUCT_DEFINITION_SHAPE($,$,#135);
#1427=PRODUCT_DEFINITION_SHAPE($,$,#136);
#1428=PRODUCT_DEFINITION_SHAPE($,$,#137);
#1429=PRODUCT_DEFINITION_SHAPE($,$,#138);
#1430=PRODUCT_DEFINITION_SHAPE($,$,#139);
#1431=PRODUCT_DEFINITION_SHAPE($,$,#140);
#1432=PRODUCT_DEFINITION_SHAPE($,$,#141);
#1433=PRODUCT_DEFINITION_SHAPE($,$,#142);
#1434=PRODUCT_DEFINITION_SHAPE($,$,#143);
#1435=PRODUCT_DEFINITION_SHAPE($,$,#144);
#1436=PRODUCT_DEFINITION_SHAPE($,$,#145);
#1437=PRODUCT_DEFINITION_SHAPE($,$,#146);
#1438=PRODUCT_DEFINITION_SHAPE($,$,#147);
#1439=PRODUCT_DEFINITION_SHAPE($,$,#148);
#1440=PRODUCT_DEFINITION_SHAPE($,$,#149);
#1441=PRODUCT_DEFINITION_SHAPE($,$,#150);
#1442=PRODUCT_DEFINITION_SHAPE($,$,#151);
#1443=PRODUCT_DEFINITION_SHAPE($,$,#152);
#1444=PRODUCT_DEFINITION_SHAPE($,$,#153);
#1445=PRODUCT_DEFINITION_SHAPE($,$,#154);
#1446=SHAPE_REPRESENTATION('',(#840,#890,#891,#892,#893,#894,#895,#896,
#897,#898,#899,#900,#901,#902,#903,#904,#905,#906,#907,#908,#909,#910,#911,
#912,#913,#914,#915,#916,#917),#1361);
#1447=SHAPE_REPRESENTATION('',(#841,#847,#848,#849,#850),#1362);
#1448=SHAPE_REPRESENTATION('',(#842,#684),#1363);
#1449=SHAPE_REPRESENTATION('',(#851),#1364);
#1450=SHAPE_REPRESENTATION('',(#858),#1365);
#1451=SHAPE_REPRESENTATION('',(#859),#1366);
#1452=SHAPE_REPRESENTATION('',(#860),#1367);
#1453=SHAPE_REPRESENTATION('',(#861),#1368);
#1454=SHAPE_REPRESENTATION('',(#862),#1369);
#1455=SHAPE_REPRESENTATION('',(#863),#1370);
#1456=SHAPE_REPRESENTATION('',(#864),#1371);
#1457=SHAPE_REPRESENTATION('',(#865),#1372);
#1458=SHAPE_REPRESENTATION('',(#866),#1373);
#1459=SHAPE_REPRESENTATION('',(#867),#1374);
#1460=SHAPE_REPRESENTATION('',(#878),#1375);
#1461=SHAPE_REPRESENTATION('',(#879),#1376);
#1462=PRODUCT_DEFINITION_CONTEXT('part definition',#1512,'design');
#1463=PRODUCT_DEFINITION('Straightening_Section',
'Straightening_Section v2',#1479,#1462);
#1464=PRODUCT_DEFINITION('\X2\5EFA7ACB7FA47D44\X0\#7','\X2\5EFA7ACB7FA47D44\X0\#
7',#1480,#1462);
#1465=PRODUCT_DEFINITION('\X2\5EFA7ACB7FA47D44\X0\#12',
'\X2\5EFA7ACB7FA47D44\X0\#12',#1481,#1462);
#1466=PRODUCT_DEFINITION('\X2\5EFA7ACB7FA47D44\X0\#24',
'\X2\5EFA7ACB7FA47D44\X0\#24',#1482,#1462);
#1467=PRODUCT_DEFINITION('\X2\5EFA7ACB7FA47D44\X0\#22',
'\X2\5EFA7ACB7FA47D44\X0\#22',#1483,#1462);
#1468=PRODUCT_DEFINITION('\X2\5EFA7ACB7FA47D44\X0\#20',
'\X2\5EFA7ACB7FA47D44\X0\#20',#1484,#1462);
#1469=PRODUCT_DEFINITION('\X2\5EFA7ACB7FA47D44\X0\#16',
'\X2\5EFA7ACB7FA47D44\X0\#16',#1485,#1462);
#1470=PRODUCT_DEFINITION('\X2\5EFA7ACB7FA47D44\X0\#13',
'\X2\5EFA7ACB7FA47D44\X0\#13',#1486,#1462);
#1471=PRODUCT_DEFINITION('\X2\5EFA7ACB7FA47D44\X0\#14',
'\X2\5EFA7ACB7FA47D44\X0\#14',#1487,#1462);
#1472=PRODUCT_DEFINITION('\X2\5EFA7ACB7FA47D44\X0\#19',
'\X2\5EFA7ACB7FA47D44\X0\#19',#1488,#1462);
#1473=PRODUCT_DEFINITION('\X2\5EFA7ACB7FA47D44\X0\#6','\X2\5EFA7ACB7FA47D44\X0\#
6',#1489,#1462);
#1474=PRODUCT_DEFINITION('\X2\5EFA7ACB7FA47D44\X0\#18',
'\X2\5EFA7ACB7FA47D44\X0\#18',#1490,#1462);
#1475=PRODUCT_DEFINITION('\X2\5EFA7ACB7FA47D44\X0\#15',
'\X2\5EFA7ACB7FA47D44\X0\#15',#1491,#1462);
#1476=PRODUCT_DEFINITION('\X2\5EFA7ACB7FA47D44\X0\#3','\X2\5EFA7ACB7FA47D44\X0\#
3',#1492,#1462);
#1477=PRODUCT_DEFINITION('\X2\5DEE7570\X0\#1','\X2\5DEE7570\X0\#1',#1493,
#1462);
#1478=PRODUCT_DEFINITION('\X2\5EFA7ACB7FA47D44\X0\#5','\X2\5EFA7ACB7FA47D44\X0\#
5',#1494,#1462);
#1479=PRODUCT_DEFINITION_FORMATION('',$,#1514);
#1480=PRODUCT_DEFINITION_FORMATION('',$,#1515);
#1481=PRODUCT_DEFINITION_FORMATION('',$,#1516);
#1482=PRODUCT_DEFINITION_FORMATION('',$,#1517);
#1483=PRODUCT_DEFINITION_FORMATION('',$,#1518);
#1484=PRODUCT_DEFINITION_FORMATION('',$,#1519);
#1485=PRODUCT_DEFINITION_FORMATION('',$,#1520);
#1486=PRODUCT_DEFINITION_FORMATION('',$,#1521);
#1487=PRODUCT_DEFINITION_FORMATION('',$,#1522);
#1488=PRODUCT_DEFINITION_FORMATION('',$,#1523);
#1489=PRODUCT_DEFINITION_FORMATION('',$,#1524);
#1490=PRODUCT_DEFINITION_FORMATION('',$,#1525);
#1491=PRODUCT_DEFINITION_FORMATION('',$,#1526);
#1492=PRODUCT_DEFINITION_FORMATION('',$,#1527);
#1493=PRODUCT_DEFINITION_FORMATION('',$,#1528);
#1494=PRODUCT_DEFINITION_FORMATION('',$,#1529);
#1495=PRODUCT_RELATED_PRODUCT_CATEGORY('Straightening_Section v2',
'Straightening_Section v2',(#1514));
#1496=PRODUCT_RELATED_PRODUCT_CATEGORY('\X2\5EFA7ACB7FA47D44\X0\#7',
'\X2\5EFA7ACB7FA47D44\X0\#7',(#1515));
#1497=PRODUCT_RELATED_PRODUCT_CATEGORY('\X2\5EFA7ACB7FA47D44\X0\#12',
'\X2\5EFA7ACB7FA47D44\X0\#12',(#1516));
#1498=PRODUCT_RELATED_PRODUCT_CATEGORY('\X2\5EFA7ACB7FA47D44\X0\#24',
'\X2\5EFA7ACB7FA47D44\X0\#24',(#1517));
#1499=PRODUCT_RELATED_PRODUCT_CATEGORY('\X2\5EFA7ACB7FA47D44\X0\#22',
'\X2\5EFA7ACB7FA47D44\X0\#22',(#1518));
#1500=PRODUCT_RELATED_PRODUCT_CATEGORY('\X2\5EFA7ACB7FA47D44\X0\#20',
'\X2\5EFA7ACB7FA47D44\X0\#20',(#1519));
#1501=PRODUCT_RELATED_PRODUCT_CATEGORY('\X2\5EFA7ACB7FA47D44\X0\#16',
'\X2\5EFA7ACB7FA47D44\X0\#16',(#1520));
#1502=PRODUCT_RELATED_PRODUCT_CATEGORY('\X2\5EFA7ACB7FA47D44\X0\#13',
'\X2\5EFA7ACB7FA47D44\X0\#13',(#1521));
#1503=PRODUCT_RELATED_PRODUCT_CATEGORY('\X2\5EFA7ACB7FA47D44\X0\#14',
'\X2\5EFA7ACB7FA47D44\X0\#14',(#1522));
#1504=PRODUCT_RELATED_PRODUCT_CATEGORY('\X2\5EFA7ACB7FA47D44\X0\#19',
'\X2\5EFA7ACB7FA47D44\X0\#19',(#1523));
#1505=PRODUCT_RELATED_PRODUCT_CATEGORY('\X2\5EFA7ACB7FA47D44\X0\#6',
'\X2\5EFA7ACB7FA47D44\X0\#6',(#1524));
#1506=PRODUCT_RELATED_PRODUCT_CATEGORY('\X2\5EFA7ACB7FA47D44\X0\#18',
'\X2\5EFA7ACB7FA47D44\X0\#18',(#1525));
#1507=PRODUCT_RELATED_PRODUCT_CATEGORY('\X2\5EFA7ACB7FA47D44\X0\#15',
'\X2\5EFA7ACB7FA47D44\X0\#15',(#1526));
#1508=PRODUCT_RELATED_PRODUCT_CATEGORY('\X2\5EFA7ACB7FA47D44\X0\#3',
'\X2\5EFA7ACB7FA47D44\X0\#3',(#1527));
#1509=PRODUCT_RELATED_PRODUCT_CATEGORY('\X2\5DEE7570\X0\#1','\X2\5DEE7570\X0\#
1',(#1528));
#1510=PRODUCT_RELATED_PRODUCT_CATEGORY('\X2\5EFA7ACB7FA47D44\X0\#5',
'\X2\5EFA7ACB7FA47D44\X0\#5',(#1529));
#1511=APPLICATION_PROTOCOL_DEFINITION('international standard',
'automotive_design',2009,#1512);
#1512=APPLICATION_CONTEXT(
'Core Data for Automotive Mechanical Design Process');
#1513=PRODUCT_CONTEXT('part definition',#1512,'mechanical');
#1514=PRODUCT('Straightening_Section','Straightening_Section v2',$,(#1513));
#1515=PRODUCT('\X2\5EFA7ACB7FA47D44\X0\#7','\X2\5EFA7ACB7FA47D44\X0\#7',
$,(#1513));
#1516=PRODUCT('\X2\5EFA7ACB7FA47D44\X0\#12','\X2\5EFA7ACB7FA47D44\X0\#
12',$,(#1513));
#1517=PRODUCT('\X2\5EFA7ACB7FA47D44\X0\#24','\X2\5EFA7ACB7FA47D44\X0\#
24',$,(#1513));
#1518=PRODUCT('\X2\5EFA7ACB7FA47D44\X0\#22','\X2\5EFA7ACB7FA47D44\X0\#
22',$,(#1513));
#1519=PRODUCT('\X2\5EFA7ACB7FA47D44\X0\#20','\X2\5EFA7ACB7FA47D44\X0\#
20',$,(#1513));
#1520=PRODUCT('\X2\5EFA7ACB7FA47D44\X0\#16','\X2\5EFA7ACB7FA47D44\X0\#
16',$,(#1513));
#1521=PRODUCT('\X2\5EFA7ACB7FA47D44\X0\#13','\X2\5EFA7ACB7FA47D44\X0\#
13',$,(#1513));
#1522=PRODUCT('\X2\5EFA7ACB7FA47D44\X0\#14','\X2\5EFA7ACB7FA47D44\X0\#
14',$,(#1513));
#1523=PRODUCT('\X2\5EFA7ACB7FA47D44\X0\#19','\X2\5EFA7ACB7FA47D44\X0\#
19',$,(#1513));
#1524=PRODUCT('\X2\5EFA7ACB7FA47D44\X0\#6','\X2\5EFA7ACB7FA47D44\X0\#6',
$,(#1513));
#1525=PRODUCT('\X2\5EFA7ACB7FA47D44\X0\#18','\X2\5EFA7ACB7FA47D44\X0\#
18',$,(#1513));
#1526=PRODUCT('\X2\5EFA7ACB7FA47D44\X0\#15','\X2\5EFA7ACB7FA47D44\X0\#
15',$,(#1513));
#1527=PRODUCT('\X2\5EFA7ACB7FA47D44\X0\#3','\X2\5EFA7ACB7FA47D44\X0\#3',
$,(#1513));
#1528=PRODUCT('\X2\5DEE7570\X0\#1','\X2\5DEE7570\X0\#1',$,(#1513));
#1529=PRODUCT('\X2\5EFA7ACB7FA47D44\X0\#5','\X2\5EFA7ACB7FA47D44\X0\#5',
$,(#1513));
#1530=PRESENTATION_STYLE_ASSIGNMENT((#1532));
#1531=PRESENTATION_STYLE_ASSIGNMENT((#1533));
#1532=SURFACE_STYLE_USAGE(.BOTH.,#1534);
#1533=SURFACE_STYLE_USAGE(.BOTH.,#1535);
#1534=SURFACE_SIDE_STYLE('',(#1536));
#1535=SURFACE_SIDE_STYLE('',(#1537));
#1536=SURFACE_STYLE_FILL_AREA(#1538);
#1537=SURFACE_STYLE_FILL_AREA(#1539);
#1538=FILL_AREA_STYLE('\X2\94A2\X0\ - \X2\7F0E5149\X0\',(#1540));
#1539=FILL_AREA_STYLE('\X2\677E6811\X0\',(#1541));
#1540=FILL_AREA_STYLE_COLOUR('\X2\94A2\X0\ - \X2\7F0E5149\X0\',#1542);
#1541=FILL_AREA_STYLE_COLOUR('\X2\677E6811\X0\',#1543);
#1542=COLOUR_RGB('\X2\94A2\X0\ - \X2\7F0E5149\X0\',0.627450980392157,0.627450980392157,
0.627450980392157);
#1543=COLOUR_RGB('\X2\677E6811\X0\',0.,0.,0.);
ENDSEC;
END-ISO-10303-21;
