ISO-10303-21;
HEADER;
/* Generated by software containing ST-Developer
 * from STEP Tools, Inc. (www.steptools.com) 
 */

FILE_DESCRIPTION(
/* description */ (''),
/* implementation_level */ '2;1');

FILE_NAME(
/* name */ 'Diffuser_Section.step',
/* time_stamp */ '2026-09-19T11:34:00+08:00',
/* author */ (''),
/* organization */ (''),
/* preprocessor_version */ 'ST-DEVELOPER v20.1',
/* originating_system */ 'Autodesk Translation Framework v15.8.0.0',
/* authorisation */ '');

FILE_SCHEMA (('AUTOMOTIVE_DESIGN { 1 0 10303 214 3 1 1 }'));
ENDSEC;

DATA;
#10=MECHANICAL_DESIGN_GEOMETRIC_PRESENTATION_REPRESENTATION('',(#13),#703);
#11=SHAPE_REPRESENTATION_RELATIONSHIP('SRR','None',#710,#12);
#12=ADVANCED_BREP_SHAPE_REPRESENTATION('',(#14),#702);
#13=STYLED_ITEM('',(#719),#14);
#14=MANIFOLD_SOLID_BREP('\X2\5B9E4F53\X0\1',#435);
#15=FACE_BOUND('',#44,.T.);
#16=FACE_BOUND('',#62,.T.);
#17=FACE_OUTER_BOUND('',#43,.T.);
#18=FACE_OUTER_BOUND('',#45,.T.);
#19=FACE_OUTER_BOUND('',#46,.T.);
#20=FACE_OUTER_BOUND('',#47,.T.);
#21=FACE_OUTER_BOUND('',#48,.T.);
#22=FACE_OUTER_BOUND('',#49,.T.);
#23=FACE_OUTER_BOUND('',#50,.T.);
#24=FACE_OUTER_BOUND('',#51,.T.);
#25=FACE_OUTER_BOUND('',#52,.T.);
#26=FACE_OUTER_BOUND('',#53,.T.);
#27=FACE_OUTER_BOUND('',#54,.T.);
#28=FACE_OUTER_BOUND('',#55,.T.);
#29=FACE_OUTER_BOUND('',#56,.T.);
#30=FACE_OUTER_BOUND('',#57,.T.);
#31=FACE_OUTER_BOUND('',#58,.T.);
#32=FACE_OUTER_BOUND('',#59,.T.);
#33=FACE_OUTER_BOUND('',#60,.T.);
#34=FACE_OUTER_BOUND('',#61,.T.);
#35=FACE_OUTER_BOUND('',#63,.T.);
#36=FACE_OUTER_BOUND('',#64,.T.);
#37=FACE_OUTER_BOUND('',#65,.T.);
#38=FACE_OUTER_BOUND('',#66,.T.);
#39=FACE_OUTER_BOUND('',#67,.T.);
#40=FACE_OUTER_BOUND('',#68,.T.);
#41=FACE_OUTER_BOUND('',#69,.T.);
#42=FACE_OUTER_BOUND('',#70,.T.);
#43=EDGE_LOOP('',(#271,#272,#273,#274));
#44=EDGE_LOOP('',(#275,#276,#277,#278));
#45=EDGE_LOOP('',(#279,#280,#281,#282));
#46=EDGE_LOOP('',(#283,#284,#285,#286));
#47=EDGE_LOOP('',(#287,#288,#289,#290));
#48=EDGE_LOOP('',(#291,#292,#293,#294));
#49=EDGE_LOOP('',(#295,#296,#297,#298));
#50=EDGE_LOOP('',(#299,#300,#301,#302));
#51=EDGE_LOOP('',(#303,#304,#305,#306));
#52=EDGE_LOOP('',(#307,#308,#309,#310));
#53=EDGE_LOOP('',(#311,#312,#313,#314));
#54=EDGE_LOOP('',(#315,#316,#317,#318));
#55=EDGE_LOOP('',(#319,#320,#321,#322));
#56=EDGE_LOOP('',(#323,#324,#325,#326));
#57=EDGE_LOOP('',(#327,#328,#329,#330));
#58=EDGE_LOOP('',(#331,#332,#333,#334));
#59=EDGE_LOOP('',(#335,#336,#337,#338));
#60=EDGE_LOOP('',(#339,#340,#341,#342));
#61=EDGE_LOOP('',(#343,#344,#345,#346));
#62=EDGE_LOOP('',(#347,#348,#349,#350));
#63=EDGE_LOOP('',(#351,#352,#353,#354));
#64=EDGE_LOOP('',(#355,#356,#357,#358));
#65=EDGE_LOOP('',(#359,#360,#361,#362));
#66=EDGE_LOOP('',(#363,#364,#365,#366));
#67=EDGE_LOOP('',(#367,#368,#369,#370));
#68=EDGE_LOOP('',(#371,#372,#373,#374));
#69=EDGE_LOOP('',(#375,#376,#377,#378));
#70=EDGE_LOOP('',(#379,#380,#381,#382));
#71=LINE('',#589,#127);
#72=LINE('',#591,#128);
#73=LINE('',#593,#129);
#74=LINE('',#594,#130);
#75=LINE('',#597,#131);
#76=LINE('',#599,#132);
#77=LINE('',#601,#133);
#78=LINE('',#602,#134);
#79=LINE('',#605,#135);
#80=LINE('',#607,#136);
#81=LINE('',#608,#137);
#82=LINE('',#611,#138);
#83=LINE('',#612,#139);
#84=LINE('',#615,#140);
#85=LINE('',#617,#141);
#86=LINE('',#618,#142);
#87=LINE('',#621,#143);
#88=LINE('',#622,#144);
#89=LINE('',#625,#145);
#90=LINE('',#626,#146);
#91=LINE('',#628,#147);
#92=LINE('',#631,#148);
#93=LINE('',#632,#149);
#94=LINE('',#634,#150);
#95=LINE('',#638,#151);
#96=LINE('',#640,#152);
#97=LINE('',#642,#153);
#98=LINE('',#643,#154);
#99=LINE('',#646,#155);
#100=LINE('',#648,#156);
#101=LINE('',#649,#157);
#102=LINE('',#652,#158);
#103=LINE('',#654,#159);
#104=LINE('',#655,#160);
#105=LINE('',#657,#161);
#106=LINE('',#658,#162);
#107=LINE('',#662,#163);
#108=LINE('',#664,#164);
#109=LINE('',#666,#165);
#110=LINE('',#667,#166);
#111=LINE('',#670,#167);
#112=LINE('',#672,#168);
#113=LINE('',#673,#169);
#114=LINE('',#676,#170);
#115=LINE('',#678,#171);
#116=LINE('',#679,#172);
#117=LINE('',#681,#173);
#118=LINE('',#682,#174);
#119=LINE('',#685,#175);
#120=LINE('',#686,#176);
#121=LINE('',#688,#177);
#122=LINE('',#690,#178);
#123=LINE('',#693,#179);
#124=LINE('',#694,#180);
#125=LINE('',#696,#181);
#126=LINE('',#698,#182);
#127=VECTOR('',#479,10.);
#128=VECTOR('',#480,10.);
#129=VECTOR('',#481,10.);
#130=VECTOR('',#482,10.);
#131=VECTOR('',#483,10.);
#132=VECTOR('',#484,10.);
#133=VECTOR('',#485,10.);
#134=VECTOR('',#486,10.);
#135=VECTOR('',#489,10.);
#136=VECTOR('',#490,10.);
#137=VECTOR('',#491,10.);
#138=VECTOR('',#494,10.);
#139=VECTOR('',#495,10.);
#140=VECTOR('',#498,10.);
#141=VECTOR('',#499,10.);
#142=VECTOR('',#500,10.);
#143=VECTOR('',#503,10.);
#144=VECTOR('',#504,10.);
#145=VECTOR('',#507,10.);
#146=VECTOR('',#508,10.);
#147=VECTOR('',#511,10.);
#148=VECTOR('',#514,10.);
#149=VECTOR('',#515,10.);
#150=VECTOR('',#518,10.);
#151=VECTOR('',#521,10.);
#152=VECTOR('',#522,10.);
#153=VECTOR('',#523,10.);
#154=VECTOR('',#524,10.);
#155=VECTOR('',#527,10.);
#156=VECTOR('',#528,10.);
#157=VECTOR('',#529,10.);
#158=VECTOR('',#532,10.);
#159=VECTOR('',#533,10.);
#160=VECTOR('',#534,10.);
#161=VECTOR('',#537,10.);
#162=VECTOR('',#538,10.);
#163=VECTOR('',#541,10.);
#164=VECTOR('',#542,10.);
#165=VECTOR('',#543,10.);
#166=VECTOR('',#544,10.);
#167=VECTOR('',#547,10.);
#168=VECTOR('',#548,10.);
#169=VECTOR('',#549,10.);
#170=VECTOR('',#552,10.);
#171=VECTOR('',#553,10.);
#172=VECTOR('',#554,10.);
#173=VECTOR('',#557,10.);
#174=VECTOR('',#558,10.);
#175=VECTOR('',#563,10.);
#176=VECTOR('',#564,10.);
#177=VECTOR('',#567,10.);
#178=VECTOR('',#570,10.);
#179=VECTOR('',#575,10.);
#180=VECTOR('',#576,10.);
#181=VECTOR('',#579,10.);
#182=VECTOR('',#582,10.);
#183=VERTEX_POINT('',#587);
#184=VERTEX_POINT('',#588);
#185=VERTEX_POINT('',#590);
#186=VERTEX_POINT('',#592);
#187=VERTEX_POINT('',#595);
#188=VERTEX_POINT('',#596);
#189=VERTEX_POINT('',#598);
#190=VERTEX_POINT('',#600);
#191=VERTEX_POINT('',#604);
#192=VERTEX_POINT('',#606);
#193=VERTEX_POINT('',#610);
#194=VERTEX_POINT('',#614);
#195=VERTEX_POINT('',#616);
#196=VERTEX_POINT('',#620);
#197=VERTEX_POINT('',#624);
#198=VERTEX_POINT('',#630);
#199=VERTEX_POINT('',#636);
#200=VERTEX_POINT('',#637);
#201=VERTEX_POINT('',#639);
#202=VERTEX_POINT('',#641);
#203=VERTEX_POINT('',#645);
#204=VERTEX_POINT('',#647);
#205=VERTEX_POINT('',#651);
#206=VERTEX_POINT('',#653);
#207=VERTEX_POINT('',#660);
#208=VERTEX_POINT('',#661);
#209=VERTEX_POINT('',#663);
#210=VERTEX_POINT('',#665);
#211=VERTEX_POINT('',#669);
#212=VERTEX_POINT('',#671);
#213=VERTEX_POINT('',#675);
#214=VERTEX_POINT('',#677);
#215=EDGE_CURVE('',#183,#184,#71,.T.);
#216=EDGE_CURVE('',#185,#183,#72,.T.);
#217=EDGE_CURVE('',#186,#185,#73,.T.);
#218=EDGE_CURVE('',#184,#186,#74,.T.);
#219=EDGE_CURVE('',#187,#188,#75,.T.);
#220=EDGE_CURVE('',#189,#187,#76,.T.);
#221=EDGE_CURVE('',#190,#189,#77,.T.);
#222=EDGE_CURVE('',#188,#190,#78,.T.);
#223=EDGE_CURVE('',#191,#190,#79,.T.);
#224=EDGE_CURVE('',#191,#192,#80,.T.);
#225=EDGE_CURVE('',#192,#188,#81,.T.);
#226=EDGE_CURVE('',#193,#189,#82,.T.);
#227=EDGE_CURVE('',#193,#191,#83,.T.);
#228=EDGE_CURVE('',#194,#186,#84,.T.);
#229=EDGE_CURVE('',#195,#194,#85,.T.);
#230=EDGE_CURVE('',#195,#184,#86,.T.);
#231=EDGE_CURVE('',#196,#185,#87,.T.);
#232=EDGE_CURVE('',#194,#196,#88,.T.);
#233=EDGE_CURVE('',#197,#187,#89,.T.);
#234=EDGE_CURVE('',#197,#193,#90,.T.);
#235=EDGE_CURVE('',#192,#197,#91,.T.);
#236=EDGE_CURVE('',#198,#183,#92,.T.);
#237=EDGE_CURVE('',#196,#198,#93,.T.);
#238=EDGE_CURVE('',#198,#195,#94,.T.);
#239=EDGE_CURVE('',#199,#200,#95,.T.);
#240=EDGE_CURVE('',#200,#201,#96,.T.);
#241=EDGE_CURVE('',#202,#201,#97,.T.);
#242=EDGE_CURVE('',#199,#202,#98,.T.);
#243=EDGE_CURVE('',#203,#199,#99,.T.);
#244=EDGE_CURVE('',#204,#202,#100,.T.);
#245=EDGE_CURVE('',#203,#204,#101,.T.);
#246=EDGE_CURVE('',#205,#203,#102,.T.);
#247=EDGE_CURVE('',#206,#204,#103,.T.);
#248=EDGE_CURVE('',#205,#206,#104,.T.);
#249=EDGE_CURVE('',#200,#205,#105,.T.);
#250=EDGE_CURVE('',#201,#206,#106,.T.);
#251=EDGE_CURVE('',#207,#208,#107,.T.);
#252=EDGE_CURVE('',#208,#209,#108,.T.);
#253=EDGE_CURVE('',#210,#209,#109,.T.);
#254=EDGE_CURVE('',#207,#210,#110,.T.);
#255=EDGE_CURVE('',#211,#207,#111,.T.);
#256=EDGE_CURVE('',#212,#210,#112,.T.);
#257=EDGE_CURVE('',#211,#212,#113,.T.);
#258=EDGE_CURVE('',#213,#211,#114,.T.);
#259=EDGE_CURVE('',#214,#212,#115,.T.);
#260=EDGE_CURVE('',#213,#214,#116,.T.);
#261=EDGE_CURVE('',#208,#213,#117,.T.);
#262=EDGE_CURVE('',#209,#214,#118,.T.);
#263=EDGE_CURVE('',#200,#191,#119,.T.);
#264=EDGE_CURVE('',#205,#193,#120,.T.);
#265=EDGE_CURVE('',#199,#192,#121,.T.);
#266=EDGE_CURVE('',#203,#197,#122,.T.);
#267=EDGE_CURVE('',#195,#208,#123,.T.);
#268=EDGE_CURVE('',#198,#207,#124,.T.);
#269=EDGE_CURVE('',#194,#213,#125,.T.);
#270=EDGE_CURVE('',#196,#211,#126,.T.);
#271=ORIENTED_EDGE('',*,*,#215,.F.);
#272=ORIENTED_EDGE('',*,*,#216,.F.);
#273=ORIENTED_EDGE('',*,*,#217,.F.);
#274=ORIENTED_EDGE('',*,*,#218,.F.);
#275=ORIENTED_EDGE('',*,*,#219,.F.);
#276=ORIENTED_EDGE('',*,*,#220,.F.);
#277=ORIENTED_EDGE('',*,*,#221,.F.);
#278=ORIENTED_EDGE('',*,*,#222,.F.);
#279=ORIENTED_EDGE('',*,*,#222,.T.);
#280=ORIENTED_EDGE('',*,*,#223,.F.);
#281=ORIENTED_EDGE('',*,*,#224,.T.);
#282=ORIENTED_EDGE('',*,*,#225,.T.);
#283=ORIENTED_EDGE('',*,*,#221,.T.);
#284=ORIENTED_EDGE('',*,*,#226,.F.);
#285=ORIENTED_EDGE('',*,*,#227,.T.);
#286=ORIENTED_EDGE('',*,*,#223,.T.);
#287=ORIENTED_EDGE('',*,*,#218,.T.);
#288=ORIENTED_EDGE('',*,*,#228,.F.);
#289=ORIENTED_EDGE('',*,*,#229,.F.);
#290=ORIENTED_EDGE('',*,*,#230,.T.);
#291=ORIENTED_EDGE('',*,*,#217,.T.);
#292=ORIENTED_EDGE('',*,*,#231,.F.);
#293=ORIENTED_EDGE('',*,*,#232,.F.);
#294=ORIENTED_EDGE('',*,*,#228,.T.);
#295=ORIENTED_EDGE('',*,*,#220,.T.);
#296=ORIENTED_EDGE('',*,*,#233,.F.);
#297=ORIENTED_EDGE('',*,*,#234,.T.);
#298=ORIENTED_EDGE('',*,*,#226,.T.);
#299=ORIENTED_EDGE('',*,*,#219,.T.);
#300=ORIENTED_EDGE('',*,*,#225,.F.);
#301=ORIENTED_EDGE('',*,*,#235,.T.);
#302=ORIENTED_EDGE('',*,*,#233,.T.);
#303=ORIENTED_EDGE('',*,*,#216,.T.);
#304=ORIENTED_EDGE('',*,*,#236,.F.);
#305=ORIENTED_EDGE('',*,*,#237,.F.);
#306=ORIENTED_EDGE('',*,*,#231,.T.);
#307=ORIENTED_EDGE('',*,*,#215,.T.);
#308=ORIENTED_EDGE('',*,*,#230,.F.);
#309=ORIENTED_EDGE('',*,*,#238,.F.);
#310=ORIENTED_EDGE('',*,*,#236,.T.);
#311=ORIENTED_EDGE('',*,*,#239,.T.);
#312=ORIENTED_EDGE('',*,*,#240,.T.);
#313=ORIENTED_EDGE('',*,*,#241,.F.);
#314=ORIENTED_EDGE('',*,*,#242,.F.);
#315=ORIENTED_EDGE('',*,*,#243,.T.);
#316=ORIENTED_EDGE('',*,*,#242,.T.);
#317=ORIENTED_EDGE('',*,*,#244,.F.);
#318=ORIENTED_EDGE('',*,*,#245,.F.);
#319=ORIENTED_EDGE('',*,*,#246,.T.);
#320=ORIENTED_EDGE('',*,*,#245,.T.);
#321=ORIENTED_EDGE('',*,*,#247,.F.);
#322=ORIENTED_EDGE('',*,*,#248,.F.);
#323=ORIENTED_EDGE('',*,*,#249,.T.);
#324=ORIENTED_EDGE('',*,*,#248,.T.);
#325=ORIENTED_EDGE('',*,*,#250,.F.);
#326=ORIENTED_EDGE('',*,*,#240,.F.);
#327=ORIENTED_EDGE('',*,*,#251,.T.);
#328=ORIENTED_EDGE('',*,*,#252,.T.);
#329=ORIENTED_EDGE('',*,*,#253,.F.);
#330=ORIENTED_EDGE('',*,*,#254,.F.);
#331=ORIENTED_EDGE('',*,*,#255,.T.);
#332=ORIENTED_EDGE('',*,*,#254,.T.);
#333=ORIENTED_EDGE('',*,*,#256,.F.);
#334=ORIENTED_EDGE('',*,*,#257,.F.);
#335=ORIENTED_EDGE('',*,*,#258,.T.);
#336=ORIENTED_EDGE('',*,*,#257,.T.);
#337=ORIENTED_EDGE('',*,*,#259,.F.);
#338=ORIENTED_EDGE('',*,*,#260,.F.);
#339=ORIENTED_EDGE('',*,*,#261,.T.);
#340=ORIENTED_EDGE('',*,*,#260,.T.);
#341=ORIENTED_EDGE('',*,*,#262,.F.);
#342=ORIENTED_EDGE('',*,*,#252,.F.);
#343=ORIENTED_EDGE('',*,*,#262,.T.);
#344=ORIENTED_EDGE('',*,*,#259,.T.);
#345=ORIENTED_EDGE('',*,*,#256,.T.);
#346=ORIENTED_EDGE('',*,*,#253,.T.);
#347=ORIENTED_EDGE('',*,*,#250,.T.);
#348=ORIENTED_EDGE('',*,*,#247,.T.);
#349=ORIENTED_EDGE('',*,*,#244,.T.);
#350=ORIENTED_EDGE('',*,*,#241,.T.);
#351=ORIENTED_EDGE('',*,*,#249,.F.);
#352=ORIENTED_EDGE('',*,*,#263,.T.);
#353=ORIENTED_EDGE('',*,*,#227,.F.);
#354=ORIENTED_EDGE('',*,*,#264,.F.);
#355=ORIENTED_EDGE('',*,*,#239,.F.);
#356=ORIENTED_EDGE('',*,*,#265,.T.);
#357=ORIENTED_EDGE('',*,*,#224,.F.);
#358=ORIENTED_EDGE('',*,*,#263,.F.);
#359=ORIENTED_EDGE('',*,*,#243,.F.);
#360=ORIENTED_EDGE('',*,*,#266,.T.);
#361=ORIENTED_EDGE('',*,*,#235,.F.);
#362=ORIENTED_EDGE('',*,*,#265,.F.);
#363=ORIENTED_EDGE('',*,*,#246,.F.);
#364=ORIENTED_EDGE('',*,*,#264,.T.);
#365=ORIENTED_EDGE('',*,*,#234,.F.);
#366=ORIENTED_EDGE('',*,*,#266,.F.);
#367=ORIENTED_EDGE('',*,*,#238,.T.);
#368=ORIENTED_EDGE('',*,*,#267,.T.);
#369=ORIENTED_EDGE('',*,*,#251,.F.);
#370=ORIENTED_EDGE('',*,*,#268,.F.);
#371=ORIENTED_EDGE('',*,*,#229,.T.);
#372=ORIENTED_EDGE('',*,*,#269,.T.);
#373=ORIENTED_EDGE('',*,*,#261,.F.);
#374=ORIENTED_EDGE('',*,*,#267,.F.);
#375=ORIENTED_EDGE('',*,*,#232,.T.);
#376=ORIENTED_EDGE('',*,*,#270,.T.);
#377=ORIENTED_EDGE('',*,*,#258,.F.);
#378=ORIENTED_EDGE('',*,*,#269,.F.);
#379=ORIENTED_EDGE('',*,*,#237,.T.);
#380=ORIENTED_EDGE('',*,*,#268,.T.);
#381=ORIENTED_EDGE('',*,*,#255,.F.);
#382=ORIENTED_EDGE('',*,*,#270,.F.);
#383=PLANE('',#449);
#384=PLANE('',#450);
#385=PLANE('',#451);
#386=PLANE('',#452);
#387=PLANE('',#453);
#388=PLANE('',#454);
#389=PLANE('',#455);
#390=PLANE('',#456);
#391=PLANE('',#457);
#392=PLANE('',#458);
#393=PLANE('',#459);
#394=PLANE('',#460);
#395=PLANE('',#461);
#396=PLANE('',#462);
#397=PLANE('',#463);
#398=PLANE('',#464);
#399=PLANE('',#465);
#400=PLANE('',#466);
#401=PLANE('',#467);
#402=PLANE('',#468);
#403=PLANE('',#469);
#404=PLANE('',#470);
#405=PLANE('',#471);
#406=PLANE('',#472);
#407=PLANE('',#473);
#408=PLANE('',#474);
#409=ADVANCED_FACE('',(#17,#15),#383,.F.);
#410=ADVANCED_FACE('',(#18),#384,.T.);
#411=ADVANCED_FACE('',(#19),#385,.T.);
#412=ADVANCED_FACE('',(#20),#386,.T.);
#413=ADVANCED_FACE('',(#21),#387,.T.);
#414=ADVANCED_FACE('',(#22),#388,.T.);
#415=ADVANCED_FACE('',(#23),#389,.T.);
#416=ADVANCED_FACE('',(#24),#390,.T.);
#417=ADVANCED_FACE('',(#25),#391,.T.);
#418=ADVANCED_FACE('',(#26),#392,.T.);
#419=ADVANCED_FACE('',(#27),#393,.T.);
#420=ADVANCED_FACE('',(#28),#394,.T.);
#421=ADVANCED_FACE('',(#29),#395,.T.);
#422=ADVANCED_FACE('',(#30),#396,.T.);
#423=ADVANCED_FACE('',(#31),#397,.T.);
#424=ADVANCED_FACE('',(#32),#398,.T.);
#425=ADVANCED_FACE('',(#33),#399,.T.);
#426=ADVANCED_FACE('',(#34,#16),#400,.T.);
#427=ADVANCED_FACE('',(#35),#401,.T.);
#428=ADVANCED_FACE('',(#36),#402,.T.);
#429=ADVANCED_FACE('',(#37),#403,.T.);
#430=ADVANCED_FACE('',(#38),#404,.T.);
#431=ADVANCED_FACE('',(#39),#405,.T.);
#432=ADVANCED_FACE('',(#40),#406,.T.);
#433=ADVANCED_FACE('',(#41),#407,.T.);
#434=ADVANCED_FACE('',(#42),#408,.T.);
#435=CLOSED_SHELL('',(#409,#410,#411,#412,#413,#414,#415,#416,#417,#418,
#419,#420,#421,#422,#423,#424,#425,#426,#427,#428,#429,#430,#431,#432,#433,
#434));
#436=DERIVED_UNIT_ELEMENT(#438,1.);
#437=DERIVED_UNIT_ELEMENT(#705,-3.);
#438=(
MASS_UNIT()
NAMED_UNIT(*)
SI_UNIT(.KILO.,.GRAM.)
);
#439=DERIVED_UNIT((#436,#437));
#440=MEASURE_REPRESENTATION_ITEM('density measure',
POSITIVE_RATIO_MEASURE(7850.),#439);
#441=PROPERTY_DEFINITION_REPRESENTATION(#446,#443);
#442=PROPERTY_DEFINITION_REPRESENTATION(#447,#444);
#443=REPRESENTATION('material name',(#445),#702);
#444=REPRESENTATION('density',(#440),#702);
#445=DESCRIPTIVE_REPRESENTATION_ITEM('\X2\94A2\X0\','\X2\94A2\X0\');
#446=PROPERTY_DEFINITION('material property','material name',#712);
#447=PROPERTY_DEFINITION('material property','density of part',#712);
#448=AXIS2_PLACEMENT_3D('',#585,#475,#476);
#449=AXIS2_PLACEMENT_3D('',#586,#477,#478);
#450=AXIS2_PLACEMENT_3D('',#603,#487,#488);
#451=AXIS2_PLACEMENT_3D('',#609,#492,#493);
#452=AXIS2_PLACEMENT_3D('',#613,#496,#497);
#453=AXIS2_PLACEMENT_3D('',#619,#501,#502);
#454=AXIS2_PLACEMENT_3D('',#623,#505,#506);
#455=AXIS2_PLACEMENT_3D('',#627,#509,#510);
#456=AXIS2_PLACEMENT_3D('',#629,#512,#513);
#457=AXIS2_PLACEMENT_3D('',#633,#516,#517);
#458=AXIS2_PLACEMENT_3D('',#635,#519,#520);
#459=AXIS2_PLACEMENT_3D('',#644,#525,#526);
#460=AXIS2_PLACEMENT_3D('',#650,#530,#531);
#461=AXIS2_PLACEMENT_3D('',#656,#535,#536);
#462=AXIS2_PLACEMENT_3D('',#659,#539,#540);
#463=AXIS2_PLACEMENT_3D('',#668,#545,#546);
#464=AXIS2_PLACEMENT_3D('',#674,#550,#551);
#465=AXIS2_PLACEMENT_3D('',#680,#555,#556);
#466=AXIS2_PLACEMENT_3D('',#683,#559,#560);
#467=AXIS2_PLACEMENT_3D('',#684,#561,#562);
#468=AXIS2_PLACEMENT_3D('',#687,#565,#566);
#469=AXIS2_PLACEMENT_3D('',#689,#568,#569);
#470=AXIS2_PLACEMENT_3D('',#691,#571,#572);
#471=AXIS2_PLACEMENT_3D('',#692,#573,#574);
#472=AXIS2_PLACEMENT_3D('',#695,#577,#578);
#473=AXIS2_PLACEMENT_3D('',#697,#580,#581);
#474=AXIS2_PLACEMENT_3D('',#699,#583,#584);
#475=DIRECTION('axis',(0.,0.,1.));
#476=DIRECTION('refdir',(1.,0.,0.));
#477=DIRECTION('center_axis',(-1.,0.,-2.22044604925031E-16));
#478=DIRECTION('ref_axis',(-2.22044604925031E-16,0.,1.));
#479=DIRECTION('',(0.,-1.,0.));
#480=DIRECTION('',(2.22044604925031E-16,0.,-1.));
#481=DIRECTION('',(0.,1.,0.));
#482=DIRECTION('',(-2.22044604925031E-16,0.,1.));
#483=DIRECTION('',(0.,1.,0.));
#484=DIRECTION('',(2.22044604925031E-16,0.,-1.));
#485=DIRECTION('',(0.,-1.,0.));
#486=DIRECTION('',(-2.22044604925031E-16,0.,1.));
#487=DIRECTION('center_axis',(0.,-1.,0.));
#488=DIRECTION('ref_axis',(2.22044604925031E-16,0.,-1.));
#489=DIRECTION('',(1.,0.,2.22044604925031E-16));
#490=DIRECTION('',(2.22044604925031E-16,0.,-1.));
#491=DIRECTION('',(1.,0.,2.22044604925031E-16));
#492=DIRECTION('center_axis',(2.22044604925031E-16,0.,-1.));
#493=DIRECTION('ref_axis',(0.,1.,0.));
#494=DIRECTION('',(1.,0.,2.22044604925031E-16));
#495=DIRECTION('',(0.,1.,0.));
#496=DIRECTION('center_axis',(0.,-1.,0.));
#497=DIRECTION('ref_axis',(2.22044604925031E-16,0.,-1.));
#498=DIRECTION('',(1.,0.,2.22044604925031E-16));
#499=DIRECTION('',(-2.22044604925031E-16,0.,1.));
#500=DIRECTION('',(1.,0.,2.22044604925031E-16));
#501=DIRECTION('center_axis',(-2.22044604925031E-16,0.,1.));
#502=DIRECTION('ref_axis',(0.,-1.,0.));
#503=DIRECTION('',(1.,0.,2.22044604925031E-16));
#504=DIRECTION('',(0.,1.,0.));
#505=DIRECTION('center_axis',(0.,1.,0.));
#506=DIRECTION('ref_axis',(-2.22044604925031E-16,0.,1.));
#507=DIRECTION('',(1.,0.,2.22044604925031E-16));
#508=DIRECTION('',(-2.22044604925031E-16,0.,1.));
#509=DIRECTION('center_axis',(-2.22044604925031E-16,0.,1.));
#510=DIRECTION('ref_axis',(0.,-1.,0.));
#511=DIRECTION('',(0.,-1.,0.));
#512=DIRECTION('center_axis',(0.,1.,0.));
#513=DIRECTION('ref_axis',(-2.22044604925031E-16,0.,1.));
#514=DIRECTION('',(1.,0.,2.22044604925031E-16));
#515=DIRECTION('',(2.22044604925031E-16,0.,-1.));
#516=DIRECTION('center_axis',(2.22044604925031E-16,0.,-1.));
#517=DIRECTION('ref_axis',(0.,1.,0.));
#518=DIRECTION('',(0.,-1.,0.));
#519=DIRECTION('center_axis',(0.,-1.,0.));
#520=DIRECTION('ref_axis',(-2.22044604925031E-16,0.,1.));
#521=DIRECTION('',(-2.22044604925031E-16,0.,1.));
#522=DIRECTION('',(-1.,0.,-2.22044604925031E-16));
#523=DIRECTION('',(-2.22044604925031E-16,0.,1.));
#524=DIRECTION('',(-1.,0.,-2.22044604925031E-16));
#525=DIRECTION('center_axis',(-2.22044604925031E-16,0.,1.));
#526=DIRECTION('ref_axis',(0.,1.,0.));
#527=DIRECTION('',(0.,1.,0.));
#528=DIRECTION('',(0.,1.,0.));
#529=DIRECTION('',(-1.,0.,-2.22044604925031E-16));
#530=DIRECTION('center_axis',(0.,1.,0.));
#531=DIRECTION('ref_axis',(2.22044604925031E-16,0.,-1.));
#532=DIRECTION('',(2.22044604925031E-16,0.,-1.));
#533=DIRECTION('',(2.22044604925031E-16,0.,-1.));
#534=DIRECTION('',(-1.,0.,-2.22044604925031E-16));
#535=DIRECTION('center_axis',(2.22044604925031E-16,0.,-1.));
#536=DIRECTION('ref_axis',(0.,-1.,0.));
#537=DIRECTION('',(0.,-1.,0.));
#538=DIRECTION('',(0.,-1.,0.));
#539=DIRECTION('center_axis',(2.22044604925031E-16,0.,-1.));
#540=DIRECTION('ref_axis',(0.,-1.,0.));
#541=DIRECTION('',(0.,-1.,0.));
#542=DIRECTION('',(-1.,0.,-2.22044604925031E-16));
#543=DIRECTION('',(0.,-1.,0.));
#544=DIRECTION('',(-1.,0.,-2.22044604925031E-16));
#545=DIRECTION('center_axis',(0.,1.,0.));
#546=DIRECTION('ref_axis',(2.22044604925031E-16,0.,-1.));
#547=DIRECTION('',(2.22044604925031E-16,0.,-1.));
#548=DIRECTION('',(2.22044604925031E-16,0.,-1.));
#549=DIRECTION('',(-1.,0.,-2.22044604925031E-16));
#550=DIRECTION('center_axis',(-2.22044604925031E-16,0.,1.));
#551=DIRECTION('ref_axis',(0.,1.,0.));
#552=DIRECTION('',(0.,1.,0.));
#553=DIRECTION('',(0.,1.,0.));
#554=DIRECTION('',(-1.,0.,-2.22044604925031E-16));
#555=DIRECTION('center_axis',(0.,-1.,0.));
#556=DIRECTION('ref_axis',(-2.22044604925031E-16,0.,1.));
#557=DIRECTION('',(-2.22044604925031E-16,0.,1.));
#558=DIRECTION('',(-2.22044604925031E-16,0.,1.));
#559=DIRECTION('center_axis',(-1.,0.,-2.22044604925031E-16));
#560=DIRECTION('ref_axis',(-2.22044604925031E-16,0.,1.));
#561=DIRECTION('center_axis',(-0.049937616943892,0.,-0.998752338877845));
#562=DIRECTION('ref_axis',(-0.998752338877845,0.,0.049937616943892));
#563=DIRECTION('',(0.997509336107633,-0.0498754668053816,-0.0498754668053814));
#564=DIRECTION('',(0.997509336107633,0.0498754668053816,-0.0498754668053814));
#565=DIRECTION('center_axis',(-0.0499376169438922,-0.998752338877845,-1.10883784252041E-17));
#566=DIRECTION('ref_axis',(0.998752338877845,-0.0499376169438922,2.21767568504082E-16));
#567=DIRECTION('',(0.997509336107633,-0.0498754668053816,0.0498754668053819));
#568=DIRECTION('center_axis',(-0.0499376169438924,0.,0.998752338877845));
#569=DIRECTION('ref_axis',(0.998752338877845,0.,0.0499376169438925));
#570=DIRECTION('',(0.997509336107633,0.0498754668053816,0.0498754668053819));
#571=DIRECTION('center_axis',(-0.0499376169438922,0.998752338877845,-1.10883784252041E-17));
#572=DIRECTION('ref_axis',(-0.998752338877845,-0.0499376169438922,-2.21767568504082E-16));
#573=DIRECTION('center_axis',(0.0499376169438924,2.03501198927387E-17,-0.998752338877845));
#574=DIRECTION('ref_axis',(-0.998752338877845,0.,-0.0499376169438924));
#575=DIRECTION('',(-0.997509336107633,-0.0498754668053816,-0.0498754668053819));
#576=DIRECTION('',(-0.997509336107633,0.0498754668053816,-0.0498754668053819));
#577=DIRECTION('center_axis',(0.0499376169438922,-0.998752338877845,-9.26174146753462E-18));
#578=DIRECTION('ref_axis',(0.998752338877845,0.0499376169438922,2.21767568504082E-16));
#579=DIRECTION('',(-0.997509336107633,-0.0498754668053816,0.0498754668053814));
#580=DIRECTION('center_axis',(0.049937616943892,-2.03501198927387E-17,0.998752338877845));
#581=DIRECTION('ref_axis',(0.998752338877845,0.,-0.049937616943892));
#582=DIRECTION('',(-0.997509336107633,0.0498754668053816,0.0498754668053814));
#583=DIRECTION('center_axis',(0.0499376169438922,0.998752338877845,3.14384983179428E-17));
#584=DIRECTION('ref_axis',(-0.998752338877845,0.0499376169438922,-2.21767568504082E-16));
#585=CARTESIAN_POINT('',(0.,0.,0.));
#586=CARTESIAN_POINT('Origin',(1645.,150.,1030.));
#587=CARTESIAN_POINT('',(1645.,320.,860.));
#588=CARTESIAN_POINT('',(1645.,-20.,860.));
#589=CARTESIAN_POINT('',(1645.,65.,860.));
#590=CARTESIAN_POINT('',(1645.,320.,1200.));
#591=CARTESIAN_POINT('',(1645.,320.,945.));
#592=CARTESIAN_POINT('',(1645.,-20.,1200.));
#593=CARTESIAN_POINT('',(1645.,235.,1200.));
#594=CARTESIAN_POINT('',(1645.,-20.,1115.));
#595=CARTESIAN_POINT('',(1645.,0.,880.));
#596=CARTESIAN_POINT('',(1645.,300.,880.));
#597=CARTESIAN_POINT('',(1645.,225.,880.));
#598=CARTESIAN_POINT('',(1645.,0.,1180.));
#599=CARTESIAN_POINT('',(1645.,0.,955.));
#600=CARTESIAN_POINT('',(1645.,300.,1180.));
#601=CARTESIAN_POINT('',(1645.,75.,1180.));
#602=CARTESIAN_POINT('',(1645.,300.,1105.));
#603=CARTESIAN_POINT('Origin',(1640.,300.,1180.));
#604=CARTESIAN_POINT('',(1640.,300.,1180.));
#605=CARTESIAN_POINT('',(1640.,300.,1180.));
#606=CARTESIAN_POINT('',(1640.,300.,880.));
#607=CARTESIAN_POINT('',(1640.,300.,1135.));
#608=CARTESIAN_POINT('',(1640.,300.,880.));
#609=CARTESIAN_POINT('Origin',(1640.,0.,1180.));
#610=CARTESIAN_POINT('',(1640.,0.,1180.));
#611=CARTESIAN_POINT('',(1640.,0.,1180.));
#612=CARTESIAN_POINT('',(1640.,45.,1180.));
#613=CARTESIAN_POINT('Origin',(1640.,-20.,1200.));
#614=CARTESIAN_POINT('',(1640.,-20.,1200.));
#615=CARTESIAN_POINT('',(1640.,-20.,1200.));
#616=CARTESIAN_POINT('',(1640.,-20.,860.));
#617=CARTESIAN_POINT('',(1640.,-20.,860.));
#618=CARTESIAN_POINT('',(1640.,-20.,860.));
#619=CARTESIAN_POINT('Origin',(1640.,320.,1200.));
#620=CARTESIAN_POINT('',(1640.,320.,1200.));
#621=CARTESIAN_POINT('',(1640.,320.,1200.));
#622=CARTESIAN_POINT('',(1640.,-20.,1200.));
#623=CARTESIAN_POINT('Origin',(1640.,0.,880.));
#624=CARTESIAN_POINT('',(1640.,0.,880.));
#625=CARTESIAN_POINT('',(1640.,0.,880.));
#626=CARTESIAN_POINT('',(1640.,4.44089209850063E-15,925.));
#627=CARTESIAN_POINT('Origin',(1640.,300.,880.));
#628=CARTESIAN_POINT('',(1640.,255.,880.));
#629=CARTESIAN_POINT('Origin',(1640.,320.,860.));
#630=CARTESIAN_POINT('',(1640.,320.,860.));
#631=CARTESIAN_POINT('',(1640.,320.,860.));
#632=CARTESIAN_POINT('',(1640.,320.,1200.));
#633=CARTESIAN_POINT('Origin',(1640.,-20.,860.));
#634=CARTESIAN_POINT('',(1640.,320.,860.));
#635=CARTESIAN_POINT('Origin',(440.000000000001,360.,820.));
#636=CARTESIAN_POINT('',(440.000000000001,360.,820.));
#637=CARTESIAN_POINT('',(440.,360.,1240.));
#638=CARTESIAN_POINT('',(440.000000000001,360.,1135.));
#639=CARTESIAN_POINT('',(380.,360.,1240.));
#640=CARTESIAN_POINT('',(440.,360.,1240.));
#641=CARTESIAN_POINT('',(380.000000000001,360.,820.));
#642=CARTESIAN_POINT('',(380.,360.,1240.));
#643=CARTESIAN_POINT('',(440.000000000001,360.,820.));
#644=CARTESIAN_POINT('Origin',(440.000000000001,-60.,820.));
#645=CARTESIAN_POINT('',(440.000000000001,-60.,820.));
#646=CARTESIAN_POINT('',(440.000000000001,255.,820.));
#647=CARTESIAN_POINT('',(380.000000000001,-60.,820.));
#648=CARTESIAN_POINT('',(380.000000000001,360.,820.));
#649=CARTESIAN_POINT('',(440.000000000001,-60.,820.));
#650=CARTESIAN_POINT('Origin',(440.,-60.,1240.));
#651=CARTESIAN_POINT('',(440.,-60.,1240.));
#652=CARTESIAN_POINT('',(440.000000000001,-60.,925.));
#653=CARTESIAN_POINT('',(380.,-60.,1240.));
#654=CARTESIAN_POINT('',(380.000000000001,-60.,820.));
#655=CARTESIAN_POINT('',(440.,-60.,1240.));
#656=CARTESIAN_POINT('Origin',(440.,360.,1240.));
#657=CARTESIAN_POINT('',(440.,45.,1240.));
#658=CARTESIAN_POINT('',(380.,-60.,1240.));
#659=CARTESIAN_POINT('Origin',(440.000000000001,380.,800.));
#660=CARTESIAN_POINT('',(440.000000000001,380.,800.));
#661=CARTESIAN_POINT('',(440.000000000001,-80.,800.));
#662=CARTESIAN_POINT('',(440.000000000001,-80.,800.));
#663=CARTESIAN_POINT('',(380.000000000001,-80.,800.));
#664=CARTESIAN_POINT('',(440.000000000001,-80.,800.));
#665=CARTESIAN_POINT('',(380.000000000001,380.,800.));
#666=CARTESIAN_POINT('',(380.000000000001,-80.,800.));
#667=CARTESIAN_POINT('',(440.000000000001,380.,800.));
#668=CARTESIAN_POINT('Origin',(440.,380.,1260.));
#669=CARTESIAN_POINT('',(440.,380.,1260.));
#670=CARTESIAN_POINT('',(440.000000000001,380.,800.));
#671=CARTESIAN_POINT('',(380.,380.,1260.));
#672=CARTESIAN_POINT('',(380.000000000001,380.,800.));
#673=CARTESIAN_POINT('',(440.,380.,1260.));
#674=CARTESIAN_POINT('Origin',(440.,-80.,1260.));
#675=CARTESIAN_POINT('',(440.,-80.,1260.));
#676=CARTESIAN_POINT('',(440.,380.,1260.));
#677=CARTESIAN_POINT('',(380.,-80.,1260.));
#678=CARTESIAN_POINT('',(380.,380.,1260.));
#679=CARTESIAN_POINT('',(440.,-80.,1260.));
#680=CARTESIAN_POINT('Origin',(440.000000000001,-80.,800.));
#681=CARTESIAN_POINT('',(440.,-80.,1260.));
#682=CARTESIAN_POINT('',(380.,-80.,1260.));
#683=CARTESIAN_POINT('Origin',(380.000000000001,150.,1030.));
#684=CARTESIAN_POINT('Origin',(440.,-60.,1240.));
#685=CARTESIAN_POINT('',(440.,360.,1240.));
#686=CARTESIAN_POINT('',(440.,-60.,1240.));
#687=CARTESIAN_POINT('Origin',(440.,360.,1240.));
#688=CARTESIAN_POINT('',(440.000000000001,360.,820.));
#689=CARTESIAN_POINT('Origin',(440.000000000001,360.,820.));
#690=CARTESIAN_POINT('',(440.000000000001,-60.,820.));
#691=CARTESIAN_POINT('Origin',(440.000000000001,-60.,820.));
#692=CARTESIAN_POINT('Origin',(1640.,320.,860.));
#693=CARTESIAN_POINT('',(1640.,-20.,860.));
#694=CARTESIAN_POINT('',(1640.,320.,860.));
#695=CARTESIAN_POINT('Origin',(1640.,-20.,860.));
#696=CARTESIAN_POINT('',(1640.,-20.,1200.));
#697=CARTESIAN_POINT('Origin',(1640.,-20.,1200.));
#698=CARTESIAN_POINT('',(1640.,320.,1200.));
#699=CARTESIAN_POINT('Origin',(1640.,320.,1200.));
#700=UNCERTAINTY_MEASURE_WITH_UNIT(LENGTH_MEASURE(0.01),#704,
'DISTANCE_ACCURACY_VALUE',
'Maximum model space distance between geometric entities at asserted c
onnectivities');
#701=UNCERTAINTY_MEASURE_WITH_UNIT(LENGTH_MEASURE(0.01),#704,
'DISTANCE_ACCURACY_VALUE',
'Maximum model space distance between geometric entities at asserted c
onnectivities');
#702=(
GEOMETRIC_REPRESENTATION_CONTEXT(3)
GLOBAL_UNCERTAINTY_ASSIGNED_CONTEXT((#700))
GLOBAL_UNIT_ASSIGNED_CONTEXT((#704,#706,#707))
REPRESENTATION_CONTEXT('','3D')
);
#703=(
GEOMETRIC_REPRESENTATION_CONTEXT(3)
GLOBAL_UNCERTAINTY_ASSIGNED_CONTEXT((#701))
GLOBAL_UNIT_ASSIGNED_CONTEXT((#704,#706,#707))
REPRESENTATION_CONTEXT('','3D')
);
#704=(
LENGTH_UNIT()
NAMED_UNIT(*)
SI_UNIT(.MILLI.,.METRE.)
);
#705=(
LENGTH_UNIT()
NAMED_UNIT(*)
SI_UNIT($,.METRE.)
);
#706=(
NAMED_UNIT(*)
PLANE_ANGLE_UNIT()
SI_UNIT($,.RADIAN.)
);
#707=(
NAMED_UNIT(*)
SI_UNIT($,.STERADIAN.)
SOLID_ANGLE_UNIT()
);
#708=SHAPE_DEFINITION_REPRESENTATION(#709,#710);
#709=PRODUCT_DEFINITION_SHAPE('',$,#712);
#710=SHAPE_REPRESENTATION('',(#448),#702);
#711=PRODUCT_DEFINITION_CONTEXT('part definition',#716,'design');
#712=PRODUCT_DEFINITION('120','120 v8',#713,#711);
#713=PRODUCT_DEFINITION_FORMATION('',$,#718);
#714=PRODUCT_RELATED_PRODUCT_CATEGORY('120 v8','120 v8',(#718));
#715=APPLICATION_PROTOCOL_DEFINITION('international standard',
'automotive_design',2009,#716);
#716=APPLICATION_CONTEXT(
'Core Data for Automotive Mechanical Design Process');
#717=PRODUCT_CONTEXT('part definition',#716,'mechanical');
#718=PRODUCT('120','120 v8',$,(#717));
#719=PRESENTATION_STYLE_ASSIGNMENT((#720));
#720=SURFACE_STYLE_USAGE(.BOTH.,#721);
#721=SURFACE_SIDE_STYLE('',(#722));
#722=SURFACE_STYLE_FILL_AREA(#723);
#723=FILL_AREA_STYLE('\X2\94A2\X0\ - \X2\7F0E5149\X0\',(#724));
#724=FILL_AREA_STYLE_COLOUR('\X2\94A2\X0\ - \X2\7F0E5149\X0\',#725);
#725=COLOUR_RGB('\X2\94A2\X0\ - \X2\7F0E5149\X0\',0.627450980392157,0.627450980392157,
0.627450980392157);
ENDSEC;
END-ISO-10303-21;
